<svg id="action-edit" xmlns="http://www.w3.org/2000/svg" viewBox="0 0 489.6 489.6"><path d="M53.6 167V437h270.2V318.7a368 368 0 0 0 37.2-27.9c2.8-2.2 8.3-6.7 15.4-13.5v186a26.3 26.3 0 0 1-26.3 26.3H27.3A26.3 26.3 0 0 1 1 463.3V140.6a26.3 26.3 0 0 1 26.3-26.3H115c-9.6 16.4-17.8 34-24.7 52.6H53.6zM482.3 4c-9-1.5-20-2.5-32.5-3.2h-3.2l-5.8-.4h-.3l-4.8-.2h-.1c-87-2.9-147.6 23-147.6 23-82.5 33.4-139.3 93.1-165 184.2-8.2 29.5-5.6 60.2-1.4 90.4.5 2.8 2 7 10.8 1.3a409.9 409.9 0 0 1 81.4-131C257.7 119.5 307 80.8 368 56.5c11.2-4.5 21.9-7.9 33.3-11.8.4 1-.5 2-1.4 2.4l-1 .3a330 330 0 0 0-88.5 53 612 612 0 0 0-117 128.2A660.6 660.6 0 0 0 103.8 408s-3.6 16.1 8.6 4.4l53.8-66.9a8 8 0 0 1 2.3-2.8 12 12 0 0 1 4.2-2.3c24.5-9.2 49.3-17.6 73-28.4a364 364 0 0 0 87.7-55c2.9-2.3 32-25 62.6-72l1.4-2 .6-1a450.8 450.8 0 0 0 22.2-39.5l-61.7-8.4s69.8-9.9 80-32.5c.7-1.2 1.4-3.3 1.9-4.6 5.4-12.2 10.9-25.7 17-36.9 1.9-5.8 15.8-30.5 30-45 3.4-3.7 0-10.3-5-11z"/></svg>
