<svg id="clubs-header" xmlns="http://www.w3.org/2000/svg" viewBox="0 0 24 24" xml:space="preserve"><path d="M10 3c4.4 0 8 2.8 8 6.4 0 3-3 6.3-7.9 6.3-1.6 0-2.7-.3-3.7-.6-1 .6-1.3.8-3 1.4.4-1.5.4-2.2.3-3.2-.9-1-1.7-2.1-1.7-3.9C2 5.9 5.6 3 10 3zm0-2C4.7 1 0 4.5 0 9.4c0 1.7.6 3.4 1.7 4.7 0 1.5-.9 3.7-1.7 5.3 2.2-.4 5.3-1.3 6.6-2.1 1.2.3 2.3.4 3.4.4 5.9 0 9.9-4 9.9-8.3C20 4.5 15.2 1 10 1zm11.5 11.2l-.6 1.4c1.7 1.3 2.3 3.2.5 5.4l.1 1.9c-.9-.3-1-.4-1.7-.8-2.1.5-4.3.7-6.1-.9l-1.7.4c1.5 1.9 4.3 2.9 7.6 2.1.9.6 2.9 1.1 4.4 1.4-.5-1-1.1-2.5-1.1-3.5a5 5 0 0 0-1.4-7.4zm-15-3.8c-.6 0-1.1.5-1.1 1.1s.5 1.1 1.1 1.1 1.1-.5 1.1-1.1-.5-1.1-1.1-1.1zm3.5 0c-.6 0-1.1.5-1.1 1.1s.5 1.1 1.1 1.1 1.1-.5 1.1-1.1-.5-1.1-1.1-1.1zm3.5 0c-.6 0-1.1.5-1.1 1.1s.5 1.1 1.1 1.1 1.1-.5 1.1-1.1-.5-1.1-1.1-1.1z"/></svg>
