<svg id="default-club" version="1" xmlns="http://www.w3.org/2000/svg" width="570" height="570"><path d="M266 95c0 3-2 6-4 9 75 64 101 4 4-9zm-4 11l-1-1 1 1zm-13-32v-1 1zm18 18zm-21-18c-12-98-66-76-8 3 2-1 5-3 8-3zm17 7l3 9c98-11 76-66-3-9zm0-2l-1 1 1-1zm-28 25l-1 1 1-1zm-6-12zm2-2c0-4 1-7 4-9-75-62-101-3-4 9zm20-16c3 0 6 2 9 4 62-75 3-101-9-4zm-17 29l-3-9c-99 13-78 67 3 9zm2-24l-1-1 1 1zm4 14l2 4v1l1 1 4 1 1 1h1l1-1 3-1 1-1h1v-1l2-4v-2l-2-4v-1l-1-1-4-1-1-1h-1l-1 1-3 1-1 1-1 1-2 4v2z"/><path d="M495 196c100-43 27-115-15-16 42-99-68-99-23 0-45-99-115-27-15 16-100-43-100 67 0 23-100 44-30 114 15 15-19 41-11 65 2 72v40c-5-7-11-10-18-11-11-1-27 7-46-5 2 48 44 61 57 53l7-5v30H325v-9l6 2c11 2 38-20 25-56-10 14-23 13-31 17v-14c6-7 8-21 0-42 29 62 76 15 9-14 68 30 68-46 0-16 68-30 18-79-11-11 29-68-46-68-16 0-30-68-78-19-10 11-17-8-30-9-39-6V148c18 53 50 27 1-41h-1l-8 4h-2l-2-1a18 18 0 0 1-9-4c-56 66-18 94 2 35v267H124v-41l10 7c12 8 54-6 56-54-19 13-35 4-46 6-7 0-14 4-20 13v-34c12-9 19-33 2-71 42 99 115 29 16-15 99 44 99-66 0-23 99-43 26-115-16-16 42-99-68-99-23 0-45-99-114-27-15 16-99-43-99 67 0 23-99 44-30 114 15 15-19 41-11 65 2 72v22l-8-2c-11-2-27 7-46-6 2 46 40 60 54 55v33H19c-10 0-19 8-19 19v115c0 10 9 19 19 19h497c11 0 20-9 20-19V427c0-11-9-19-20-19h-38V305c12-9 18-33 2-71 42 99 115 29 15-15 100 44 100-66 0-23zm-394 11a13 13 0 1 1 27 0 13 13 0 0 1-27 0zm222 76a8 8 0 1 1-16 0 8 8 0 0 1 16 0zm-65 15c9 2 22 1 39-6-67 30-22 77 9 13-10 23-7 38 0 44v59h-48V298zm230 129a19 19 0 1 1 0 38H48a19 19 0 1 1 0-38h57v29h19v-29h115v29h19v-29h48v29h19v-29h134v29h19v-29h10zm-20-207a13 13 0 1 1 0-27 13 13 0 0 1 0 27z"/></svg>
