<svg id="hexagon-logo" version="1" xmlns="http://www.w3.org/2000/svg" viewBox="0 0 340 250"><g class="hex-bgsvg" transform="translate(107.5 53.76)"><defs><clipPath id="hex-clip"><path d="M-50-29.5h350v71H-50zM-50 100.5h350v71H-50z"/></clipPath></defs><g fill="#166a8f"><g clip-path="url(#hex-clip)"><svg width="125" height="142.48"><svg id="hexagon" xmlns="http://www.w3.org/2000/svg" viewBox="0 0 267.13 304.48"><path fill="#f6911f" d="M63.36 121.57v73.17l-31.68-18.3L0 158.15l31.68-18.29 31.68-18.29z"/><path fill="#ffdd29" d="M0 158.15V84.99l31.68 18.29 31.68 18.29-31.68 18.29L0 158.15z"/><path fill="#a51e24" d="M63.36 267.9v-73.16l31.69 18.29 31.68 18.29-31.68 18.29-31.69 18.29z"/><path fill="#f1592a" d="M0 231.32l31.68-18.29 31.68-18.29-31.68-18.3L0 158.15v73.17z"/><path fill="#781c20" d="M126.73 231.32l-31.68 18.29-31.69 18.29 31.69 18.29 31.68 18.29v-73.16z"/><path fill="#d02128" d="M63.36 194.74v73.16l-31.68-18.29L0 231.32l31.68-18.29 31.68-18.29z"/><path fill="#b367b2" d="M203.77 121.57v73.17l31.68-18.3 31.68-18.29-31.68-18.29-31.68-18.29z"/><path fill="#d9b3da" d="M267.13 158.15V84.99l-31.68 18.29-31.68 18.29 31.68 18.29 31.68 18.29z"/><path fill="#4d014c" d="M203.76 267.9l.01-36.58v-36.58l-31.69 18.29-31.68 18.29 31.68 18.29 31.68 18.29z"/><path fill="#9a3198" d="M267.13 231.32l-31.68-18.29-31.68-18.29 31.68-18.3 31.68-18.29v73.17z"/><path fill="#340033" d="M140.4 231.32l31.68 18.29 31.68 18.29-31.68 18.29-31.68 18.29v-73.16z"/><path fill="#690067" d="M203.77 194.74v36.58l-.01 36.58 31.69-18.29 31.68-18.29-31.68-18.29-31.68-18.29z"/><path fill="#042f85" d="M196.93 109.75l-31.68-18.29-31.69-18.29 31.69-18.29 31.68-18.3v73.17z"/><path fill="#0d2659" d="M196.93 36.58l31.68 18.29 31.68 18.3-31.68 18.29-31.68 18.29V36.58z"/><path fill="#027fcc" d="M70.2 36.58l31.68 18.3 31.68 18.29-31.68 18.29-31.68 18.29V36.58z"/><path fill="#1845a2" d="M133.56 0v73.17l31.69-18.29 31.68-18.3-31.68-18.29L133.56 0z"/><path fill="#0daee2" d="M70.2 109.75V36.58l-31.68 18.3L6.84 73.17l31.68 18.29 31.68 18.29z"/><path fill="#0d51d9" d="M133.56 73.17l-31.68-18.29-31.68-18.3 31.68-18.29L133.56 0v73.17z"/></svg></svg></g><g id="hex-text"><path transform="translate(-27.1 74.52)" d="M7.25-6.55q0-1.71.49-4.53.49-2.82 1.29-4.86.81-2.05 2.17-3.56 2.63-2.9 8.3-2.9 4.41 0 6.31 1.77 1.91 1.76 1.91 5.26t-1.01 6.71q-1.02 3.2-2.45 4.91l2.17 1.47-2.45 4.03L17.82.53l.24-1.34-2.97.81q-4.24 0-6.04-1.7-1.8-1.7-1.8-4.85zm6.61 1.09h2.77q1.36 0 2.03-.33.66-.34.87-1.53l1.61-9.1h-2.8q-1.33 0-1.99.34-.67.33-.88 1.52l-1.61 9.1zM-7.18-11.8H6.83l-.25 1.47-13.76-1.47zm-.38 3.36h13.9q-.11.81-.11 1.47L-7.56-8.44zm1.22-6.72H7.67l-.42 1.44-13.59-1.44zm-.77 10.08H6.27q.07.6.28 1.47L-7.11-5.08zm2.42-13.44H9.1q-.49.91-.7 1.4l-13.09-1.4zm.94 16.84H7.53q.49.52 1.4 1.29L-3.75-1.68zm3.89-20.2h12.29q-1.02.63-1.58 1.16L.14-21.88zm41.75 3.36h8.89q5.11 0 5.11 4.62 0 2.1-.84 4.36-.84 2.26-2.84 3.38l2 6.16h-6.55l-1.33-5.39h-.84L44.55 0h-5.88l3.22-18.52zm7.38 7.28l.21-1.22.04-.35q0-.6-1.86-.6h-.77l-.56 3.22h1.12q1.61 0 1.82-1.05zM37.79-1.68l-.28 1.57-14.84-1.57h15.12zm1.19-6.76l-.28 1.58-14.84-1.58h15.12zm.6-3.36l-.28 1.58-14.84-1.58h15.12zm.59-3.36l-.28 1.58-14.84-1.58h15.12zm.56-3.36l-.25 1.58-14.83-1.58h15.08zM38.39-5.08l-.28 1.58-14.84-1.58h15.12zm28.83-3.36l-.28 1.58L52.1-8.44h15.12zm.59-3.36l-.28 1.58-14.84-1.58h15.12zm.6-3.36l-.28 1.58-14.84-1.58h15.12zm.56-3.36l-.25 1.58-14.84-1.58h15.09zM51.99-5.08H66.8v.7q0 .6.03.88L51.99-5.08zM68.16-.11L53.32-1.68h13.83q.38.98 1.01 1.57zm5.43-4.79h1.75q.94 0 1.31-.23.37-.23.51-1.1l2.2-12.29h5.88L83.42-8.09q-.84 4.9-2.71 6.71-1.87 1.8-6.39 1.8-3.6 0-5.04-1.07t-1.44-3.73q0-1.47.39-3.71l1.86-10.43h5.88L73.59-4.9zM101.47 0h-6.12l3.22-18.52h6.16L101.47 0zm-7-1.68l-.28 1.57-14.84-1.57h15.12zm1.19-6.76l-.28 1.58-14.84-1.58h15.12zm.6-3.36l-.28 1.58-14.84-1.58h15.12zm.59-3.36l-.28 1.58-14.84-1.58h15.12zm.56-3.36l-.24 1.58-14.84-1.58h15.08zM95.07-5.08l-.28 1.58-14.84-1.58h15.12zm19.55 4.97L99.99-1.68h15.12l-.49 1.57zm-11.93-15.05h15.08q-.21.56-.45 1.58l-14.63-1.58zm14.21 4.66v.28l-14.84-1.58h14.91q-.07.84-.07 1.3zm-.67 5.42l-.49 1.54-14.59-1.54h15.08zM105.1-18.52h15.09q-.95.7-1.44 1.47l-13.65-1.47zm-1.68 10.08h13.79q.32.91 1.02 1.58l-14.81-1.58zm29.44-9.69l-1.68 5.11q-2.38-.56-4.06-.56-1.68 0-2.49.1l-.17 1.02 1.75.21q5.63.73 5.63 4.65 0 .46-.21 1.7t-.7 2.4q-.49 1.15-1.24 1.87-.75.72-1.47 1.16-.72.43-1.84.61-1.75.28-4.67.28t-5.9-.81l1.72-5.18q2.73.77 4.77.77 2.05 0 2.89-.1l.18-1.12-2.21-.25q-2.83-.31-4.02-1.33-1.19-1.01-1.19-2.9 0-.7.17-1.75.7-3.75 2.52-5.18 1.82-1.44 5.55-1.44 3.73 0 6.67.74zm23.75 7.24l-.59 3.36h-5.22l-.42 2.38h6.48L155.95 0h-12.36l3.22-18.52h12.32l-1.64 5.25h-5.71l-.42 2.38h5.25zm-13.89 9.21l-.28 1.57-14.84-1.57h15.12zm1.19-6.76l-.28 1.58-14.84-1.58h15.12zm.59-3.36l-.28 1.58-14.84-1.58h15.12zm.6-3.36l-.28 1.58-14.84-1.58h15.12zm.56-3.36l-.25 1.58-14.84-1.58h15.09zm-2.35 13.44l-.28 1.58-14.84-1.58h15.12zm29.46-13.44h8.89q5.11 0 5.11 4.62 0 2.1-.84 4.36-.84 2.26-2.83 3.38L185.09 0h-6.54l-1.33-5.39h-.84L175.43 0h-5.88l3.22-18.52zm7.39 7.28l.21-1.22.03-.35q0-.6-1.85-.6h-.77l-.56 3.22h1.12q1.61 0 1.82-1.05zm-11.48 9.56l-.28 1.57-14.84-1.57h15.12zm1.19-6.76l-.28 1.58-14.84-1.58h15.12zm.59-3.36l-.28 1.58-14.84-1.58h15.12zm.6-3.36l-.28 1.58-14.84-1.58h15.12zm.56-3.36l-.25 1.58-14.84-1.58h15.09zm-2.35 13.44l-.28 1.58-14.84-1.58h15.12z"/><path transform="translate(29.36 93.33)" d="M1.62-11.81V0h1.49v-5.56H8.6V0h1.52v-11.81H8.6v4.95H3.11v-4.95zm10.94 7.45c0 .72.11 1.37.33 1.93A3.91 3.91 0 0 0 15.11-.1a4.3 4.3 0 0 0 1.65.32c.6 0 1.13-.09 1.6-.27.47-.18.89-.39 1.28-.63l-.52-.98c-.33.21-.67.37-1.02.5-.36.12-.74.19-1.16.19-.84 0-1.52-.28-2.04-.83a3.43 3.43 0 0 1-.88-2.25h5.91a6.04 6.04 0 0 0-.18-2.5 3.91 3.91 0 0 0-.68-1.3 2.94 2.94 0 0 0-1.1-.83 3.65 3.65 0 0 0-1.48-.28 3.69 3.69 0 0 0-2.71 1.22c-.37.4-.66.88-.88 1.45a5.31 5.31 0 0 0-.34 1.93zm6.12-.66H14a4 4 0 0 1 .3-1.18 2.64 2.64 0 0 1 1.33-1.41c.29-.12.58-.18.89-.18.69 0 1.22.23 1.6.71.38.47.56 1.16.56 2.06zm4.97.45L20.79 0h1.55l1.19-2.03a15.4 15.4 0 0 1 .88-1.57h.07l.49.77.46.8L26.71 0h1.6l-2.84-4.41 2.65-4.34h-1.55l-1.06 1.93-.4.73-.4.73h-.07l-.45-.73-.41-.73-1.17-1.93h-1.6zm5.78 2.3c0 .79.24 1.41.73 1.84.49.43 1.1.65 1.84.65.54 0 1.06-.13 1.54-.37.49-.25.94-.55 1.36-.89h.04L35.06 0h1.23v-5.36a4.3 4.3 0 0 0-.72-2.62c-.48-.66-1.26-.98-2.32-.98-.71 0-1.36.12-1.95.36-.59.25-1.08.51-1.49.77l.59 1.03c.35-.24.74-.46 1.18-.65.44-.19.92-.29 1.43-.29.36 0 .66.06.88.19.23.12.41.29.55.49.14.21.24.44.29.71.06.26.08.53.08.81-1.87.2-3.23.56-4.09 1.07a2.42 2.42 0 0 0-1.29 2.2zm1.46-.11c0-.27.06-.53.2-.76.13-.24.35-.44.65-.62.31-.18.71-.34 1.22-.47.5-.13 1.12-.25 1.85-.34v2.43c-.42.38-.82.67-1.19.87-.38.2-.78.3-1.2.3-.43 0-.8-.11-1.09-.33-.29-.21-.44-.57-.44-1.08zm8.82 3.86c0-.26.07-.51.21-.76.15-.25.38-.49.69-.72a3 3 0 0 0 .58.12c.2.02.38.02.55.02h1.51c.58 0 1.02.08 1.32.24.3.15.45.44.45.84 0 .23-.07.45-.2.67-.13.22-.32.41-.56.57a3.7 3.7 0 0 1-2.01.55c-.8 0-1.42-.14-1.87-.42-.45-.27-.67-.65-.67-1.11zm-1.3.19c0 .39.09.72.26 1.01.18.29.42.54.74.74.32.2.7.36 1.14.46.45.1.94.15 1.48.15.68 0 1.3-.08 1.85-.24a4.48 4.48 0 0 0 1.39-.66c.38-.27.68-.6.88-.96.21-.37.31-.75.31-1.16 0-.73-.26-1.27-.77-1.6a4.35 4.35 0 0 0-2.29-.49h-1.69c-.6 0-1.01-.09-1.23-.27a.87.87 0 0 1-.32-.68c0-.24.05-.45.16-.61.11-.16.24-.31.4-.44a3.14 3.14 0 0 0 1.31.31 3.46 3.46 0 0 0 2.27-.82 3.02 3.02 0 0 0 .73-3.25 2.42 2.42 0 0 0-.52-.77h1.8v-1.14h-3.04a3.77 3.77 0 0 0-2.51 0 2.9 2.9 0 0 0-2.02 2.9c0 .53.11.99.35 1.39.23.41.49.73.78.97v.07c-.23.16-.44.37-.65.65-.2.27-.3.6-.3.97a1.56 1.56 0 0 0 .77 1.42v.07c-.4.28-.71.59-.94.92-.22.34-.34.69-.34 1.06zm3.62-5.43a1.7 1.7 0 0 1-.71-.15 1.85 1.85 0 0 1-1-1.07c-.1-.25-.14-.55-.14-.87 0-.65.18-1.15.54-1.5.36-.36.79-.53 1.31-.53s.95.17 1.31.53c.36.35.54.85.54 1.5 0 .32-.04.62-.14.87-.1.26-.23.48-.4.66a1.83 1.83 0 0 1-1.31.56zm5.22-.6c0 .72.11 1.37.33 1.94A3.88 3.88 0 0 0 51.3.22c.54 0 1.05-.11 1.54-.31s.91-.5 1.29-.89c.37-.39.67-.87.89-1.44.22-.57.33-1.22.33-1.94 0-.73-.11-1.38-.33-1.95a3.96 3.96 0 0 0-2.18-2.35 4.02 4.02 0 0 0-4.37.9c-.37.4-.67.88-.89 1.45a5.39 5.39 0 0 0-.33 1.95zm1.53 0c0-.5.06-.96.18-1.37.12-.42.29-.77.51-1.07.22-.3.49-.54.8-.7.32-.16.66-.24 1.03-.24s.71.08 1.03.24c.31.16.58.4.8.7.22.3.39.65.51 1.07.12.41.18.87.18 1.37 0 .51-.06.96-.18 1.37-.12.41-.29.76-.51 1.05-.22.3-.49.53-.8.69-.32.16-.66.24-1.03.24s-.71-.08-1.03-.24a2.29 2.29 0 0 1-.8-.69 3.21 3.21 0 0 1-.51-1.05 4.84 4.84 0 0 1-.18-1.37zm8.87-4.39V0h1.48v-6.34c.44-.44.84-.78 1.19-1 .35-.23.75-.35 1.2-.35.58 0 1 .19 1.26.55.27.37.4.97.4 1.79V0h1.48v-5.54c0-1.13-.22-1.98-.64-2.56-.43-.58-1.1-.86-2.03-.86-.61 0-1.15.14-1.61.42-.46.28-.9.63-1.32 1.05H59l-.12-1.26z" fill="#e68523"/></g></g></g></svg>
