<svg id="member-other" fill="currentColor" xmlns="http://www.w3.org/2000/svg" viewBox="0 0 48 48"><path fill-opacity=".8" d="M45.11 14.97l-.15.06-8-1-2.64-1.59a3.06 3.06 0 0 0-4 .8l-1.76 2.87c-1.8.76-2.85 1.97-2.6 3.92.14 1.12.9 3.18 1.42 4.56a2.44 2.44 0 0 0 2.06 1.55c1.6.14 4.11.41 5.52.83 2.2.66 2.2 3.9 1.9 5.06-.29 1.17-1.75 5.35-.2 6.9s2.08 2.73 2.08 2.73a22.93 22.93 0 0 1-16.78 5.28 22.75 22.75 0 0 1-9.08-2.76l.08-.15-2-6 4-2 2.8-6.43c.61-1.24-.2-2.7-1.58-2.83l-7.14-.64a3.48 3.48 0 0 1-1.9-.8L1.27 20.3c.18-1.12.44-2.2.78-3.26h3.53L7 19.41a1.78 1.78 0 0 0 2.53.57 1.78 1.78 0 0 0 .55-2.39c-.53-.9-1.08-1.92-.99-2.1l.98-1.82a3.15 3.15 0 0 1 2.76-1.64c1.73 0 3.13-1.4 3.13-3.13V5.03l-1.8-1.8A22.97 22.97 0 0 1 28.8 1.54c-.34 1.43-.7 5.32 5.15 5.48.56.02 3 2 3 2l2.7-1.79a22.88 22.88 0 0 1 5.45 7.73z"/><path d="M46.03 14.58a23.67 23.67 0 0 0-5.67-8.04 11.02 11.02 0 0 0-.53-.5 24.1 24.1 0 0 0-5.72-3.75A23.94 23.94 0 0 0 29.28.62l-.3-.05a23.86 23.86 0 0 0-5.02-.54c-3.57 0-7.02.77-10.24 2.3a24.18 24.18 0 0 0-8.7 6.97 23.7 23.7 0 0 0-3.92 7.43 23.01 23.01 0 0 0-.8 3.37 1.84 1.84 0 0 0-.04.14 24.02 24.02 0 0 0-.3 3.8c0 .7.03 1.33.08 1.87A23.46 23.46 0 0 0 3 35.69a23.96 23.96 0 0 0 6.23 7.28 22.31 22.31 0 0 0 3.17 2.1 23.62 23.62 0 0 0 9.48 2.87 24.07 24.07 0 0 0 17.52-5.51 24.03 24.03 0 0 0 8.57-18.4 23.86 23.86 0 0 0-1.93-9.45zM38 7.13l-1 .67C34.8 6.06 34.24 6.04 34 6.04c-1.88-.06-3.16-.51-3.81-1.36a2.92 2.92 0 0 1-.53-1.9c1.25.34 2.46.78 3.6 1.32a22.14 22.14 0 0 1 4.76 3.03zm-31.4 3.4a22.17 22.17 0 0 1 7.35-6.09l1 1V8.9c0 1.18-.95 2.13-2.13 2.13A4.14 4.14 0 0 0 9.2 13.2l-1 1.85c-.26.53-.15 1.05 1.03 3.05a.79.79 0 0 1-.25 1.06.81.81 0 0 1-1.11-.26l-1.42-2.38a1 1 0 0 0-.86-.49h-2.1a21.68 21.68 0 0 1 3.12-5.5zM4.72 34.72a21.5 21.5 0 0 1-2.7-8.99 16.79 16.79 0 0 1-.07-1.7c0-.58.03-1.17.07-1.76L6.5 26.1a4.52 4.52 0 0 0 2.46 1.03l7.14.64a.95.95 0 0 1 .75.5c.15.27.16.6 0 .94l-2.65 6.1-3.68 1.83a1 1 0 0 0-.5 1.21l1.2 3.59c-.25-.18-.51-.35-.76-.54a22 22 0 0 1-5.72-6.68zm17.32 11.23a21.64 21.64 0 0 1-8.2-2.38l-1.67-5.03 3.23-1.61a1 1 0 0 0 .47-.5l2.77-6.38a2.96 2.96 0 0 0-.06-2.76 2.97 2.97 0 0 0-2.32-1.51l-7.13-.64a2.5 2.5 0 0 1-1.35-.56l-5.42-4.66c.12-.64.26-1.26.44-1.89h2.2l1.13 1.9a2.8 2.8 0 0 0 3.94.89 2.78 2.78 0 0 0 .86-3.73 15.7 15.7 0 0 1-.78-1.46l.79-1.48a2.14 2.14 0 0 1 1.88-1.12 4.13 4.13 0 0 0 4.13-4.13V5.03a1 1 0 0 0-.3-.7l-.76-.77a21.84 21.84 0 0 1 11.78-1.2 5 5 0 0 0 .92 3.54c1.02 1.33 2.78 2.05 5.23 2.13.4.18 1.59 1.04 2.5 1.78a1 1 0 0 0 1.19.06l2-1.33a21.68 21.68 0 0 1 3.92 5.3l-6.14-.77-2.46-1.48a4.07 4.07 0 0 0-5.38 1.13l-1.59 2.6c-2.73 1.29-3.1 3.33-2.9 4.84.12.94.6 2.51 1.48 4.8a3.47 3.47 0 0 0 2.9 2.18c2.44.21 4.33.5 5.32.8 1.43.42 1.45 2.93 1.22 3.86l-.14.53c-.55 1.94-1.57 5.54.2 7.31.71.71 1.19 1.33 1.48 1.77a22.05 22.05 0 0 1-13.47 4.63 21.73 21.73 0 0 1-1.91-.1zm23.54-17.93a22 22 0 0 1-6.63 12.09 14.1 14.1 0 0 0-1.6-1.88c-.93-.95 0-4.27.31-5.36l.16-.6c.4-1.6.3-5.39-2.58-6.25-1.45-.43-3.9-.71-5.72-.87a1.45 1.45 0 0 1-1.22-.91c-1-2.62-1.3-3.8-1.36-4.33-.12-.96.02-2.04 2-2.87a1 1 0 0 0 .47-.4l1.7-2.8a2.05 2.05 0 0 1 2.68-.54l2.65 1.6a1 1 0 0 0 .39.13l7.58.94a21.9 21.9 0 0 1 1.54 8.06c0 1.36-.12 2.7-.37 3.99z"/></svg>
