<svg id="member-position" fill="currentColor" xmlns="http://www.w3.org/2000/svg" viewBox="0 0 25 32" xml:space="preserve"><path d="M20.6 18l-8.2 10.6L4.2 18A9.8 9.8 0 0 1 2 12C2 6.5 6.7 2 12.4 2 18 2 22.7 6.5 22.7 12c0 2.3-.8 4.3-2.1 6zM0 12c0 2.2.6 4.2 1.7 6l10.7 14 10.7-14a11.6 11.6 0 0 0 1.7-6c0-6.6-5.6-12-12.4-12C5.5 0 0 5.4 0 12z"/><path d="M8 12a4 4 0 0 1 4.2-4 4 4 0 0 1 4.1 4 4 4 0 0 1-4.1 4A4 4 0 0 1 8 12zm-2 0c0 3.3 2.8 6 6.2 6a6.1 6.1 0 0 0 6.2-6c0-3.3-2.8-6-6.2-6A6.1 6.1 0 0 0 6 12z"/></svg>
