<svg id="member-photo-album" version="1" xmlns="http://www.w3.org/2000/svg" viewBox="0 0 512 512"><path d="M495 38H86c-10 0-18 8-18 18v17H51c-9 0-17 7-17 17v17H17c-9 0-17 7-17 17v333c0 9 8 17 17 17h410c9 0 17-8 17-17v-17h17c9 0 17-8 17-18v-17h17c10 0 17-7 17-17V56c0-10-7-18-17-18zm-68 276l-45-51c-3-4-9-4-13 0l-54 62-147-131c-3-3-8-3-11 0L17 318V132c0-4 4-8 9-8h392c5 0 9 4 9 8v182zm26 108h-9V124c0-10-8-17-17-17H51v-9c0-5 4-8 9-8h392c5 0 9 3 9 8v316c0 5-4 8-8 8zm34-34h-9V90c0-10-7-18-17-18H86v-8c0-5 3-8 8-8h393c4 0 8 3 8 8v316c0 4-4 8-8 8z"/><path d="M307 175a34 34 0 1 0 0 68 34 34 0 0 0 0-68z"/></svg>
