<svg id="member-discussions" fill="none" stroke-width="2" stroke-linejoin="round" stroke-linecap="round" stroke-miterlimit="10" xmlns="http://www.w3.org/2000/svg" viewBox="0 0 64 64"><g id="bubbles" stroke="var(--ui-clr-black)"><path d="M36 42v5a2 2 0 0 1-2 2H15v6l-6-6H6a2 2 0 0 1-2-2V27a2 2 0 0 1 2-2h12"/><path fill="var(--ui-clr-red)" fill-opacity=".2" d="M57 34a2 2 0 0 0 2-2V12a2 2 0 0 0-2-2H25a2 2 0 0 0-2 2v20a2 2 0 0 0 2 2h23v6l6-6z"/><path d="M57 34a2 2 0 0 0 2-2V12a2 2 0 0 0-2-2H25a2 2 0 0 0-2 2v20a2 2 0 0 0 2 2h23v6l6-6z"/></g><path stroke="var(--ui-clr-red)" d="M8 34h9m-9 5h18M8 44h18"/><path stroke="var(--ui-clr-highlight)" d="M35 23h18m-18 5h18"/></svg>
