<svg version="1" id="member-buffs" xmlns="http://www.w3.org/2000/svg" viewBox="0 0 457 457"><path id="hand" d="M441 253c11-12 16-26 16-43 0-15-6-28-16-38a53 53 0 0 0-39-17h-79a72 72 0 0 1 5-13l3-5 8-16a117 117 0 0 0 3-77c-1-4-4-8-7-13s-7-8-11-11c-5-3-10-6-17-8s-15-3-24-3c-5 0-9 2-13 6a85 85 0 0 0-15 29l-3 17a718 718 0 0 1-9 31l-9 14-29 34-29 35c-10 11-17 16-22 17-4 0-8 2-12 5-3 4-5 8-5 13v183c0 5 2 9 5 13 4 3 8 5 13 5 7 0 22 5 45 13a1573 1573 0 0 0 70 19c14 3 28 5 41 5h36c26-1 45-8 57-23 11-13 15-30 14-51 7-7 12-16 15-27 3-12 3-23 0-34 9-11 13-24 12-39 0-6-1-13-4-21z"/><path id="cuffs" d="M101 192H18c-5 0-9 2-13 5-3 4-5 8-5 13v183c0 5 2 9 5 13 4 3 8 5 13 5h83c4 0 9-2 12-5 4-4 6-8 6-13V210c0-5-2-9-6-13-3-3-8-5-12-5zM68 369c-4 4-8 6-13 6s-10-2-13-6c-4-3-5-8-5-13s1-9 5-13c3-3 8-5 13-5s9 2 13 5c3 4 5 8 5 13s-2 10-5 13z"/></svg>
