<svg id="member-searching" fill="currentColor" xmlns="http://www.w3.org/2000/svg" viewBox="0 0 1000 1000"><path d="M378 494l-190 1c3-48 21-96 55-134l135 133zm-190 27c3 49 22 96 56 134l134-134H188zm208-235c-49 3-96 21-134 56l134 133V286zM263 674c38 34 86 53 134 55V540L263 674zm161 55c48-3 95-21 134-56L423 540l1 189zm207-235c-3-49-21-96-56-134L442 494h189zM422 286l1 189 134-134c-39-34-86-52-135-55zm154 368c34-38 53-86 55-134l-189 1 134 133zm319 267l-69 69-195-194 17-17-41-41a302 302 0 0 1-412-15 302 302 0 0 1-1-430c48-48 108-78 174-87-27-75-126-110-127-110l16-46c4 1 79 28 127 87 3-23 13-81 54-108 51-36 131-10 131-10s-3 84-55 120c-40 28-96 18-120 13 10 15 19 32 24 51a303 303 0 0 1 296 304c0 73-25 142-72 197l40 40 17-17 196 194zM591 688a254 254 0 0 0-1-362 254 254 0 0 0-362 1 254 254 0 0 0 1 362c48 48 113 74 181 74s133-26 181-75z"/></svg>
