<svg id="member-blog" xmlns="http://www.w3.org/2000/svg" viewBox="0 0 21.28 21.28"><path d="M6.75 20.53a7.16 7.16 0 0 1-4.78-1.81 6.32 6.32 0 0 1-1.44-1.99A5.74 5.74 0 0 1 0 14.3V7c0-.84.18-1.65.53-2.41a6.47 6.47 0 0 1 3.6-3.35C4.94.92 5.82.75 6.74.75h4.7a6 6 0 0 1 1.42.37 8.7 8.7 0 0 1 2.82 1.78c.4.39.73.81.97 1.26l.18.35c.06.1.1.22.15.36a5.95 5.95 0 0 1 .3 1.43l.15 1.02c.05.3.18.52.39.67.12.1.33.18.62.2.3.04.6.06.9.07.3 0 .59.02.86.03.26 0 .44.05.53.13l.29.22.2.39.05.27-.05 5.03c0 .85-.18 1.65-.53 2.41a6.31 6.31 0 0 1-3.6 3.3 7.2 7.2 0 0 1-2.62.5H6.75v-.01zm.08-14.64c-.37 0-.67.12-.92.35a1.12 1.12 0 0 0 0 1.68c.25.23.55.35.92.35h3.73c.36 0 .67-.12.93-.36a1.1 1.1 0 0 0 0-1.66 1.32 1.32 0 0 0-.93-.36H6.83zm-1.3 8.5c0 .27.12.5.38.7.25.2.55.3.92.3h7.6c.36 0 .66-.1.9-.3.25-.2.37-.43.37-.7 0-.28-.12-.5-.36-.7a1.45 1.45 0 0 0-.91-.28h-7.6c-.37 0-.67.1-.92.28a.84.84 0 0 0-.38.7z"/></svg>
