<svg id="messages-unread" xmlns="http://www.w3.org/2000/svg" viewBox="0 0 64 64"><path d="M39.43 56.85a.51.51 0 0 0-.37-.85H25.4a.51.51 0 0 0-.37.85 9.81 9.81 0 0 0 14.4 0zM58.51 46.77a22.13 22.13 0 0 1-6.31-15.72l.07-6.31C52.38 13.87 44 4.5 33.18 4a20 20 0 0 0-20.9 19.76l-.07 6.83a22.13 22.13 0 0 1-6.66 15.6l-.82.8A2.42 2.42 0 0 0 4 48.7v.57a2.42 2.42 0 0 0 2.4 2.45l51.15.55A2.42 2.42 0 0 0 60 49.88v-.57a2.42 2.42 0 0 0-.69-1.72zM42.24 26.82l-8.7 8.52a5.5 5.5 0 0 1-7.76-.06l-3.45-3.49a2.38 2.38 0 0 1 0-3.36l.89-.87a2.38 2.38 0 0 1 3.36 0L28 29a2.38 2.38 0 0 0 3.36 0L38 22.53a2.38 2.38 0 0 1 3.36 0l.87.89a2.38 2.38 0 0 1 .01 3.4z"/></svg>
