<svg id="movies-liked" fill="currentColor" xmlns="http://www.w3.org/2000/svg" viewBox="0 0 250 250"><path d="M159 122a37 37 0 1 0 0 75 37 37 0 0 0 0-75zm23 35c0 3-2 6-4 9l-19 18-18-18c-4-4-5-8-6-11v-1a12 12 0 0 1 24-5 12 12 0 0 1 24 5l-1 3z"/><path d="M172 119l-10-34-89 24 15 56 29-7a42 42 0 0 1 55-39z"/><path d="M181 110c-2-8 3-17 10-19l-7-27-139 37 7 28c8-3 16 2 18 10s-3 16-10 18l7 28 52-14-2-9-31 8-17-64 96-26 12 41c11 5 20 16 23 29l7-2-8-28c-8 2-16-3-18-10z"/><path d="M125 0a125 125 0 1 0 0 250 125 125 0 0 0 0-250zm0 242a117 117 0 1 1 0-234 117 117 0 0 1 0 234z"/></svg>
