<svg id="online-que" fill="currentColor" xmlns="http://www.w3.org/2000/svg" viewBox="0 0 297 297"><path d="M251 277h-17.7v-31.5c0-31.7-17.3-60.8-48.9-82-4-2.6-6.4-8.4-6.4-15s2.5-12.4 6.4-15c31.6-21.2 49-50.3 49-82V20H251a10 10 0 0 0 0-20H46a10 10 0 0 0 0 20h17.7v31.5c0 31.7 17.3 60.8 48.8 82 4 2.6 6.5 8.4 6.5 15s-2.5 12.4-6.5 15c-31.5 21.2-48.8 50.3-48.8 82V277H46a10 10 0 0 0 0 20h205a10 10 0 0 0 0-20zM138.5 110.4a10 10 0 0 1 20 0V128a10 10 0 1 1-20 0v-17.6zm3 63.6a10 10 0 0 1 14 0 10 10 0 0 1 0 14 10 10 0 0 1-14 0 10 10 0 0 1 0-14zM86.8 277c8.2-30.9 50.2-64.5 55.4-68.6a10 10 0 0 1 12.4 0c5.2 4 47.2 37.7 55.4 68.6H86.9z"/></svg>
