<svg id="online-inactive" xmlns="http://www.w3.org/2000/svg" viewBox="0 0 130.7 77.8"><path d="M66.3 108.3l-9 5.7a67.6 67.6 0 0 0 33.1 4.5l-2.6-8.3a61.3 61.3 0 0 1-21.5-2zM95.2 109.2l2.6 8a68.7 68.7 0 0 0 23.7-10l-4.3-7.4a60.3 60.3 0 0 1-22 9.4zM29.6 82.5l10.2-10.2a60.9 60.9 0 0 1 78.8-6l8-4.5a69.3 69.3 0 0 0-92.8 4.6L23.5 76.7a8.2 8.2 0 0 0 0 11.7l10.3 10.3a69.2 69.2 0 0 0 10 8.2l8.5-4.6a60.5 60.5 0 0 1-12.5-9.5zM144.4 82.8V82.5a3.3 3.3 0 0 0-1.4-2.7 62.7 62.7 0 0 0-4.2-5 4.3 4.3 0 1 0-6.2 6c.7.6 1.6 1.7 2.4 2.8l-9.2 9.2L123 95l4.3 7.5c1.5-1.2 3-2.5 4.3-3.9l10.4-10.3a8.1 8.1 0 0 0 1.8-3 4.3 4.3 0 0 0 .5-2.6z" transform="translate(-19.7 -46.2)"/><path d="M84.4 63.4A19.7 19.7 0 0 0 68.8 95L103 76.5a19.7 19.7 0 0 0-18.6-13.1z" transform="translate(-19.7 -46.2)"/><path fill="#DF2700" d="M23.9 124a4.2 4.2 0 0 1-2-8l122.3-66.6a4.2 4.2 0 0 1 4 7.4L25.9 123.4a4.2 4.2 0 0 1-2 .5z" transform="translate(-19.7 -46.2)"/></svg>
