<svg id="qx-gold-flower" stroke="#a18703" fill-rule="evenodd" fill="#c2a803" xmlns="http://www.w3.org/2000/svg" viewBox="0 0 640 480" xml:space="preserve"><path d="M287 243.7a34.7 34.7 0 0 1-17.7-26.7c5.2.1 17.8 13.4 18.4 26.4"/><path d="M290.3 244.2c-5.8-.7-6.5-27.3 0-33.8 7.2 6 7.2 33.3 0 33.8z"/><path d="M284.9 242.2a30.1 30.1 0 0 1-5.6-26.5c3.9 2.4 11.5 12 11 28.5"/><path d="M290.2 244c-7.7-10.8-17.3-19.2-27.5-19.6 6.4 12 6.9 18.5 27.6 19.7M293.6 243.7a34.7 34.7 0 0 0 17.6-26.7c-5.2.1-17.8 13.4-18.4 26.4"/><path d="M295.7 242.2a30.1 30.1 0 0 0 5.5-26.5c-3.8 2.4-11.4 12-11 28.4"/><path d="M290.3 244c7.7-10.8 17.3-19.2 27.5-19.6-6.4 12-6.8 18.4-27.6 19.7"/></svg>
