<svg width="256" height="256" viewBox="0 0 256 256" shape-rendering="geometricPrecision" version="1.1" xmlns="http://www.w3.org/2000/svg"><desc>Created by https://guilds.gw2w2w.com/</desc><rect x="0" y="0" width="256" height="256" fill="none" stroke="none" /><g >
<g fill="rgb(26,24,27)" stroke="rgb(26,24,27)" stroke-width=".05%" stroke-opacity="50%"><path d=" M 111.66 83.10 C 114.05 81.23 116.98 79.97 119.37 78.00 C 119.55 80.24 119.36 82.52 118.82 84.71 C 117.63 87.92 115.03 90.36 113.86 93.59 C 114.41 93.94 114.96 94.29 115.51 94.62 C 115.90 90.96 119.65 89.31 121.25 86.30 C 122.81 83.51 126.04 81.79 129.10 81.25 C 136.44 84.19 143.50 88.26 149.04 93.97 C 153.95 100.76 158.97 107.94 159.92 116.51 C 160.16 116.69 160.64 117.04 160.88 117.22 L 161.15 117.59 C 161.13 118.35 161.08 119.87 161.06 120.62 C 162.43 124.04 164.40 127.18 165.86 130.56 C 166.47 130.98 167.70 131.84 168.31 132.27 C 172.41 137.01 176.79 142.26 177.52 148.77 C 174.76 156.32 173.53 164.78 167.76 170.79 C 169.48 173.35 171.89 175.32 174.13 177.40 C 173.29 180.09 172.93 182.97 171.60 185.49 C 169.70 188.39 167.45 191.05 165.19 193.67 C 163.28 192.71 161.45 191.61 159.70 190.38 C 155.85 191.82 153.49 195.26 150.73 198.09 C 151.64 200.50 153.30 202.55 154.15 204.98 C 152.14 211.51 147.75 217.12 143.04 221.93 C 144.46 216.50 145.14 210.91 145.50 205.32 C 142.69 209.04 139.84 212.77 135.51 214.84 C 135.94 212.35 136.41 209.86 136.50 207.33 C 133.95 209.08 132.56 211.88 130.91 214.38 C 127.66 212.75 124.95 210.31 122.05 208.17 C 122.96 210.73 124.10 213.19 125.05 215.73 C 119.86 213.10 115.86 208.87 112.41 204.29 C 114.05 210.53 117.26 216.26 120.99 221.49 C 114.46 220.17 110.58 214.28 106.13 209.88 C 103.44 204.11 103.16 197.48 101.96 191.26 C 100.39 190.30 98.92 188.89 96.97 188.84 C 94.11 188.10 91.76 190.18 89.22 191.04 C 84.33 187.09 80.30 181.69 78.90 175.49 C 81.81 173.32 83.71 170.27 85.10 166.97 C 81.73 160.13 78.95 152.71 78.98 144.99 C 79.40 139.01 84.48 134.98 86.92 129.87 C 87.35 128.88 87.70 127.86 88.05 126.83 C 90.95 123.08 93.00 118.81 95.18 114.63 C 97.41 109.94 102.23 105.45 100.67 99.83 C 100.53 99.47 100.23 98.75 100.09 98.38 C 102.05 94.48 105.13 91.30 108.57 88.66 C 108.06 92.99 109.70 97.13 110.86 101.22 C 112.51 105.63 113.96 110.17 116.41 114.22 C 120.46 112.96 122.99 117.28 125.14 119.96 C 126.54 125.68 127.64 131.49 129.31 137.14 C 129.62 132.21 128.35 127.40 128.09 122.52 C 131.51 124.50 133.93 127.68 136.33 130.73 C 139.86 131.38 143.60 134.07 147.13 132.23 C 144.58 130.24 141.37 129.64 138.35 128.75 C 134.73 126.04 131.89 122.32 127.76 120.27 C 124.29 116.77 120.74 113.32 117.34 109.76 C 115.47 104.25 114.26 98.54 112.41 93.01 C 114.41 89.75 112.21 86.40 111.66 83.10 M 146.74 135.21 C 147.77 136.87 148.72 138.58 149.69 140.28 C 147.83 142.25 146.04 144.29 144.40 146.45 C 139.60 144.60 135.50 141.32 130.68 139.60 C 134.40 143.69 139.15 146.95 141.89 151.85 C 141.12 155.50 141.85 159.32 143.52 162.61 C 146.58 167.79 153.88 171.46 159.47 168.03 C 160.14 168.08 161.48 168.17 162.15 168.21 C 168.70 162.17 171.40 151.35 166.46 143.52 C 163.22 138.79 156.95 137.34 151.60 138.72 C 150.26 136.94 148.91 135.17 147.77 133.27 C 147.42 133.91 147.08 134.55 146.74 135.21 M 97.48 136.61 C 95.56 137.52 93.88 138.86 92.29 140.25 C 84.75 146.27 86.22 159.10 93.50 164.73 C 97.45 167.21 102.31 167.80 106.88 167.54 C 112.79 165.69 116.86 160.09 118.13 154.20 C 118.32 146.82 112.53 140.89 106.58 137.36 C 103.95 135.48 100.42 135.67 97.48 136.61 M 119.18 192.70 C 121.34 194.91 123.39 197.29 124.91 200.00 C 125.92 201.82 125.18 204.98 128.08 205.12 C 129.13 201.00 126.62 197.52 125.07 193.95 C 125.50 192.01 126.59 190.20 126.69 188.20 C 125.94 185.37 124.72 182.69 123.71 179.95 C 121.00 183.65 119.28 188.09 119.18 192.70 M 132.93 187.52 C 133.22 189.92 133.85 192.31 135.26 194.31 C 134.42 197.90 133.73 201.55 134.12 205.25 C 136.53 203.40 136.42 200.10 137.40 197.47 C 138.15 194.59 140.16 192.14 140.67 189.20 C 139.98 186.34 139.00 183.55 138.61 180.63 C 136.73 182.94 135.04 185.41 132.93 187.52 Z" /></g>
<g fill="rgb(26,24,27)" stroke="rgb(26,24,27)" stroke-width=".05%" stroke-opacity="50%"><path d=" M 81.36 31.55 C 85.01 35.29 88.63 39.19 91.16 43.80 C 92.88 47.69 93.97 51.89 94.55 56.10 C 91.95 62.79 86.41 67.82 83.27 74.25 C 82.64 71.05 81.90 67.74 79.85 65.11 C 77.94 62.03 74.57 60.48 71.90 58.19 C 74.49 56.65 76.67 58.80 78.65 60.25 C 81.32 62.08 82.00 65.44 83.65 68.05 C 83.22 65.66 83.23 63.08 82.22 60.85 C 80.02 59.10 77.48 57.79 75.35 55.94 C 77.84 54.13 80.41 52.45 82.99 50.77 C 82.96 44.33 83.39 37.78 81.36 31.55 Z" />
<path d=" M 182.59 65.06 C 182.96 62.14 183.27 59.21 183.74 56.30 C 186.91 61.30 190.96 65.79 196.34 68.46 C 196.05 70.65 194.49 72.27 193.27 73.99 C 195.12 73.01 196.91 71.91 198.66 70.75 C 199.61 75.52 200.61 80.31 201.05 85.16 C 200.88 85.66 200.54 86.66 200.37 87.16 C 197.96 84.61 194.68 83.15 191.19 82.96 C 193.94 85.74 199.21 85.93 200.40 90.10 C 200.73 97.20 199.43 104.23 198.43 111.22 C 194.69 109.00 192.37 103.58 187.26 104.96 C 191.62 107.00 195.11 110.56 196.75 115.14 C 195.54 119.25 193.07 122.85 191.49 126.81 C 185.29 128.70 178.76 129.41 172.68 131.74 C 171.27 132.02 169.69 133.26 168.31 132.27 C 167.70 131.84 166.47 130.98 165.86 130.56 C 166.44 125.97 163.72 122.11 161.68 118.28 C 161.54 118.10 161.28 117.76 161.15 117.59 L 160.88 117.22 C 160.67 114.25 161.31 111.02 159.64 108.36 C 158.00 105.43 156.74 102.30 156.09 98.99 C 158.79 99.26 161.53 99.26 164.21 99.71 C 168.28 102.69 170.57 107.41 174.29 110.75 C 176.63 112.85 179.64 114.07 181.79 116.39 C 182.93 118.82 183.45 121.57 185.17 123.71 C 185.03 120.88 184.76 117.94 183.38 115.41 C 180.45 112.33 176.09 111.02 173.33 107.73 C 171.13 105.00 169.02 102.12 167.61 98.89 C 167.94 98.40 168.59 97.42 168.92 96.93 C 171.80 97.84 173.63 100.49 176.36 101.69 C 178.42 102.62 180.63 103.14 182.82 103.65 C 180.17 101.68 177.32 100.00 174.59 98.13 C 176.06 97.25 177.55 96.39 179.05 95.57 C 179.16 93.75 179.12 91.93 178.96 90.13 C 184.06 93.13 191.22 96.30 196.49 91.94 C 191.77 92.30 185.81 92.53 182.74 88.20 C 184.92 87.84 187.51 88.52 189.31 86.92 C 189.07 85.14 187.95 83.64 187.16 82.08 C 188.46 81.53 189.76 80.99 191.06 80.45 C 189.82 79.45 188.59 78.45 187.37 77.44 C 188.88 76.43 190.42 75.44 191.96 74.47 C 189.49 74.43 187.31 72.70 187.66 70.09 C 185.88 68.50 184.15 66.86 182.59 65.06 Z" />
<path d=" M 52.32 69.47 C 57.87 66.62 62.78 62.39 68.77 60.52 C 74.68 63.26 81.49 67.60 81.86 74.82 C 79.30 77.40 76.24 79.45 73.92 82.28 C 71.97 79.82 69.65 77.68 67.76 75.19 C 66.27 72.46 65.69 69.35 64.37 66.54 C 64.18 71.56 65.33 77.14 69.30 80.57 C 73.47 86.21 76.24 93.00 81.49 97.84 C 76.45 103.72 68.58 106.16 61.27 107.86 C 60.66 111.44 59.69 114.94 58.67 118.43 C 54.04 111.41 52.00 103.15 50.09 95.07 C 51.46 92.06 54.62 89.71 58.01 89.86 C 61.52 89.80 65.22 90.27 68.47 88.62 C 64.16 87.93 59.79 87.96 55.46 87.44 C 53.38 88.39 51.69 89.98 49.87 91.33 C 49.17 83.93 51.03 76.69 52.32 69.47 M 67.58 95.79 C 65.83 96.69 63.65 95.95 61.92 96.86 C 59.32 98.74 57.50 101.48 56.12 104.33 C 58.40 102.93 60.02 100.73 62.23 99.23 C 64.12 97.96 66.60 98.52 68.57 97.54 C 70.76 95.57 72.60 93.23 74.21 90.77 C 71.71 92.04 69.74 94.05 67.58 95.79 Z" />
<path d=" M 63.22 109.41 C 70.77 108.73 76.69 103.86 82.42 99.42 C 87.80 102.52 94.30 100.85 99.95 99.67 L 100.67 99.83 C 102.23 105.45 97.41 109.94 95.18 114.63 C 93.50 116.46 91.55 118.01 89.95 119.92 C 88.46 121.89 88.43 124.49 88.05 126.83 C 87.70 127.86 87.35 128.88 86.92 129.87 C 86.59 130.36 85.94 131.33 85.62 131.82 C 83.68 130.20 81.46 128.86 79.81 126.93 C 79.22 124.78 79.71 122.43 80.36 120.35 C 82.47 118.50 84.99 117.00 86.31 114.42 C 88.58 110.46 91.64 107.07 94.33 103.41 C 87.22 106.78 85.21 115.82 77.85 119.02 C 77.66 121.80 77.52 124.64 76.27 127.19 C 71.66 124.33 66.72 122.08 61.25 121.69 C 61.09 121.30 60.77 120.53 60.62 120.15 C 61.39 116.54 63.00 113.13 63.22 109.41 Z" /></g>


</g></svg>