<svg version="1.1" xmlns="http://www.w3.org/2000/svg" xmlns:xlink="http://www.w3.org/1999/xlink" x="0px" y="0px" width="100px" height="100px" viewBox="0 0 100 100" enable-background="new 0 0 100 100" xml:space="preserve">
	<path id="path" fill="#C1C1C1" d="M35.463,71.437h5.391V44.65h-4.395c0,0.234-0.069,0.591-0.205,1.069c-0.229,0.801-0.576,1.44-1.03,1.924  c-0.664,0.698-1.523,1.167-2.578,1.401c-0.664,0.151-1.826,0.259-3.486,0.332v3.584h6.304V71.437z M59.184,71.437h5.156v-5.762  h3.032v-4.121H64.34V44.816h-5.913l-9.849,16.26v4.6h10.605V71.437z M52.499,61.555l6.684-11.538v11.538H52.499z M32.787,32.458  c1.543,0,2.798-1.255,2.798-2.803V19.567c0-1.543-1.255-2.798-2.798-2.798c-1.548,0-2.803,1.255-2.803,2.798v10.088  C29.984,31.203,31.239,32.458,32.787,32.458z M66.518,32.458c1.548,0,2.798-1.255,2.798-2.803V19.567  c0-1.543-1.25-2.798-2.798-2.798c-1.548,0-2.803,1.255-2.803,2.798v10.088C63.715,31.203,64.97,32.458,66.518,32.458z   M70.238,22.004v2.964c1.167,1.03,1.904,2.534,1.904,4.209c0,3.111-2.52,5.625-5.625,5.625c-3.11,0-5.625-2.514-5.625-5.625  c0-1.675,0.737-3.179,1.899-4.209v-2.964H36.508v2.964c1.167,1.03,1.904,2.534,1.904,4.209c0,3.111-2.52,5.625-5.625,5.625  c-3.11,0-5.625-2.514-5.625-5.625c0-1.675,0.737-3.179,1.899-4.209v-2.964H16.527v59.863H82.27V22.004H70.238z M76.264,75.866  h-53.73V38.464h53.73V75.866z"></path>
</svg>
