<svg version="1.1" id="clubs-header" xmlns="http://www.w3.org/2000/svg" viewBox="0 0 24 24" xml:space="preserve">
	<path d="M10,3c4.4,0,8,2.8,8,6.4c0,3-3,6.3-7.9,6.3c-1.6,0-2.7-0.3-3.7-0.6c-1,0.6-1.3,0.8-3,1.4  c0.4-1.5,0.4-2.2,0.3-3.2C2.8,12.3,2,11.2,2,9.4C2,5.9,5.6,3,10,3z M10,1C4.7,1,0,4.5,0,9.4c0,1.7,0.6,3.4,1.7,4.7  c0,1.5-0.9,3.7-1.7,5.3c2.2-0.4,5.3-1.3,6.6-2.1c1.2,0.3,2.3,0.4,3.4,0.4c5.9,0,9.9-4,9.9-8.3C20,4.5,15.2,1,10,1z M21.5,12.2  c-0.2,0.5-0.4,1-0.6,1.4c1.7,1.3,2.3,3.2,0.5,5.4c0,0.7,0,1,0.1,1.9c-0.9-0.3-1-0.4-1.7-0.8c-2.1,0.5-4.3,0.7-6.1-0.9  c-0.6,0.2-1.1,0.3-1.7,0.4c1.5,1.9,4.3,2.9,7.6,2.1c0.9,0.6,2.9,1.1,4.4,1.4c-0.5-1-1.1-2.5-1.1-3.5C24.6,17.4,24.4,14.1,21.5,12.2z   M6.5,8.4c-0.6,0-1.1,0.5-1.1,1.1s0.5,1.1,1.1,1.1s1.1-0.5,1.1-1.1S7.1,8.4,6.5,8.4z M10,8.4c-0.6,0-1.1,0.5-1.1,1.1  s0.5,1.1,1.1,1.1s1.1-0.5,1.1-1.1S10.6,8.4,10,8.4z M13.5,8.4c-0.6,0-1.1,0.5-1.1,1.1s0.5,1.1,1.1,1.1s1.1-0.5,1.1-1.1  S14.1,8.4,13.5,8.4z"/>
</svg>
