<svg id="forum_one" viewBox="0 0 49 72">
	<g fill="currentColor" fill-rule="nonzero">
		<path d="M12.3004115,66 L10.9897119,62.8735157 C10.6872428,62.1675354 4.03292181,46.1316968 2.01646091,40.2821456 C1.00823045,37.35737 0.302469136,34.3317401 0,31.2052558 C0,24.7505786 2.62139918,18.5984644 7.15843621,14.0600195 C11.7962963,9.52157463 18.0473251,7.00021636 24.5,7.00021636 C37.936226,6.944219 48.8890725,17.7652019 49,31.2052558 C49,37.659933 46.4794239,43.8120472 41.8415638,48.3504921 C37.2037037,52.888937 30.9526749,55.4102952 24.5,55.4102952 C22.382716,55.4102952 20.1646091,55.1077323 18.1481481,54.5026063 L12.3004115,66 Z M24.399177,10.0258463 C18.7530864,10.0258463 13.308642,12.2446416 9.27572016,16.2788148 C5.24279835,20.2121337 3.02469136,25.5574133 3.02469136,31.2052558 C3.42798354,34.0291771 4.03292181,36.752244 4.94032922,39.3744566 C6.35185185,43.6103385 10.3847737,53.5949173 12.5020576,58.6376338 L16.6358025,50.468433 L18.0473251,51.1744133 C20.063786,51.981248 22.281893,52.3846653 24.5,52.3846653 C30.1460905,52.3846653 35.590535,50.16587 39.6234568,46.1316968 C43.6563786,42.1983779 45.8744856,36.8530983 45.8744856,31.2052558 C45.7736626,19.4052991 36.1954733,9.92499196 24.399177,10.0258463 Z"></path>
		<path d="M27.5439494,36.1794872 C28.2513593,35.4615385 28.7566521,34.5384615 29.0598277,33.6153846 C29.6527244,31.7220962 29.7226323,29.7000378 29.2619448,27.7692308 C29.0598277,26.9487179 28.6555935,26.1282051 28.1503008,25.4102564 C27.645008,24.6923077 26.9375981,24.0769231 26.2301883,23.6666667 C24.4339194,22.8295749 22.3671782,22.8295749 20.5709093,23.6666667 C19.7624409,24.0769231 19.1560896,24.6923077 18.6507968,25.4102564 C18.1455041,26.1282051 17.7412698,26.9487179 17.5391527,27.7692308 C17.1389975,29.5238152 17.1389975,31.3479797 17.5391527,33.1025641 C17.7412698,33.9230769 18.1455041,34.7435897 18.6507968,35.4615385 C19.1560896,36.1794872 19.8634995,36.7948718 20.5709093,37.2051282 C21.4804363,37.6153846 22.3899633,37.8205128 23.4005488,37.8205128 C24.2090172,37.8205128 25.0174856,37.6153846 25.8259541,37.3076923 L23.9058416,35.6666667 L25.1185442,34.2307692 L27.5439494,36.1794872 Z M27.7460666,38.7435897 C26.4323054,39.4615385 25.0174856,39.7692308 23.5016073,39.7692308 C22.1878462,39.7692308 20.9751435,39.5641026 19.7624409,39.0512821 C18.7518554,38.5384615 17.8423284,37.8205128 17.1349185,37 C15.6476822,35.1560186 14.8910258,32.8156639 15.0126889,30.4358974 C15.0126889,29.2051282 15.214806,27.974359 15.5179817,26.8461538 C15.8211573,25.7179487 16.4275087,24.7948718 17.1349185,23.8717949 C17.8423284,22.9487179 18.7518554,22.3333333 19.7624409,21.8205128 C20.9751435,21.3076923 22.1878462,21 23.5016073,21 C24.8153685,21 26.0280712,21.3076923 27.2407738,21.8205128 C28.2513593,22.3333333 29.1608863,23.0512821 29.8682962,23.8717949 C31.3841744,25.7179487 32.0915843,28.0769231 31.9905258,30.4358974 C31.9905258,31.7692308 31.7884087,33.1025641 31.2831159,34.3333333 C30.8788817,35.5641026 30.1714718,36.6923077 29.2619448,37.6153846 L31.5862916,39.4615385 L30.3735889,41 L27.7460666,38.7435897 Z"></path>
	</g>
</svg>
