<svg class="forum_three" width="68" height="72" viewBox="0 0 68 72">
	<g fill="currentColor" fill-rule="nonzero">
		<path d="M60.8750018,54.5578408 C60.0833353,54.8539848 59.1927106,54.9526994 58.4010441,54.9526994 C53.1675688,54.8983153 48.9639814,50.6317155 49.0002327,45.4109683 C49.036484,40.1902212 53.2989171,35.9821177 58.5326454,36.0000571 C63.7663738,36.0179966 67.999716,40.2552208 68,45.4760932 C67.9010417,46.660669 67.6041668,47.8452448 67.2083335,49.0298206 C66.4166671,51.3002575 63.8437511,57.6179949 63.7447927,57.8154242 L63.2500012,59 L60.8750018,54.5578408 Z M49.9895879,45.4760932 C49.9895879,50.1156817 53.7500036,53.7681237 58.4010441,53.7681237 C59.2916689,53.7681237 60.0833353,53.669409 60.8750018,53.2745504 L61.3697933,52.9784065 L62.9531263,56.1372752 C63.7447927,54.1629823 65.3281257,50.2143963 65.9218755,48.634962 C66.3177088,47.6478155 66.5156254,46.5619544 66.713542,45.4760932 C66.713542,40.8365048 62.9531263,37.1840628 58.3020858,37.1840628 C53.7500036,37.1840628 49.9895879,40.8365048 49.9895879,45.4760932 Z"></path>
		<path d="M59.4255118,41 L63,49.8429487 L61.672333,49.8429487 L60.6510506,47.1602564 L56.7701778,47.1602564 L55.7488955,49.8429487 L54.5233567,49.8429487 L58.0978448,41 L59.4255118,41 Z M60.2425377,46.1666667 L58.7106142,41.9935897 L57.1786907,46.1666667 L60.2425377,46.1666667 Z M50.2339709,69.4166667 C48.0885365,69.9899443 45.7960837,69.3007049 44.3571673,67.6497711 C42.9182509,65.9988374 42.5940569,63.6858797 43.5260817,61.7204024 C44.4581065,59.7549252 46.477173,58.4936935 48.7020474,58.4871795 C51.8680226,58.4871795 54.4212284,60.9711538 54.4212284,64.0512821 C54.3191002,64.7467949 54.1148437,65.4423077 53.9105873,66.1378205 C53.3999461,67.4294872 51.8680226,71.1057692 51.7658944,71.3044872 L51.4595097,72 L50.2339709,69.4166667 Z M43.7998922,64.150641 C43.7998922,66.8333333 46.0467133,68.9198718 48.7020474,68.9198718 L48.8041756,68.9198718 C49.3148168,68.9198718 49.8254579,68.8205128 50.3360991,68.6217949 L50.6424838,68.4230769 L51.5616379,70.3108974 C52.0722791,69.1185897 52.9914332,66.8333333 53.2978179,65.9391026 C53.5020743,65.3429487 53.7063308,64.6474359 53.7063308,64.0512821 C53.7063308,61.3685897 51.4595097,59.2820513 48.8041756,59.2820513 L48.7020474,59.2820513 C45.9445851,59.2820513 43.7998922,61.4679487 43.7998922,64.150641 Z"></path>
		<path d="M48.9766542,61.9017967 L51,67 L50.1906617,67 L49.5836579,65.4313221 L47.3579775,65.4313221 L46.7509738,67 L46.0428027,67 L48.0661486,61.9017967 L48.9766542,61.9017967 Z M49.4824906,64.9411102 L48.571985,62.5880933 L47.6614794,64.9411102 L49.4824906,64.9411102 Z M34.6108988,61.6076696 C34.0038951,61.8037544 33.295724,61.9017967 32.587553,61.9017967 C28.3548103,61.8478184 24.9632891,58.4882713 25.0003001,54.386074 C25.0373111,50.2838767 28.4889304,46.9823148 32.7219999,47.0000713 C36.9550694,47.0178278 40.377068,50.3482225 40.3774344,54.4505766 C40.2762671,55.4310003 40.0739325,56.411424 39.7704307,57.2938053 C39.1634269,59.058568 37.0389138,64.0587289 36.9377465,64.2548136 L36.5330773,65.2352373 L34.6108988,61.6076696 Z M25.8093445,54.3525342 C25.8093445,57.9801019 28.8443632,60.921373 32.587553,60.921373 C33.295724,61.0194154 34.0038951,60.8233307 34.6108988,60.5292036 L35.015568,60.3331188 L36.3307428,62.8822204 C37.0389138,61.3135425 38.2529213,58.274229 38.7587578,56.9016359 C39.0622596,56.1172969 39.2645942,55.2349156 39.3657615,54.3525342 C39.3657615,50.7249665 36.3307428,47.7836954 32.587553,47.7836954 C28.8443632,47.8817378 25.9105118,50.7249665 25.8093445,54.3525342 Z"></path>
		<path d="M33.2155711,50.9217322 L36,58 L35.0055611,58 L34.21001,55.9064278 L31.2266932,55.9064278 L30.4311421,58 L29.4367032,58 L32.2211321,50.9217322 L33.2155711,50.9217322 Z M33.8122344,55.1088765 L32.6189077,51.8189774 L31.425581,55.1088765 L33.8122344,55.1088765 Z M15.5145585,49.2269357 C14.4206757,49.6257113 13.3267929,49.7254052 12.2329101,49.7254052 C5.47072551,49.6257113 -0.0981323823,44.0428522 0.00131150853,37.2636661 C0.100755399,30.48448 5.66961329,24.9016209 12.4317979,25.0013148 C19.1939824,25.1010087 24.6633964,30.5841739 24.6633964,37.36336 C24.4645087,38.9584626 24.166177,40.5535652 23.5695136,42.0489739 C22.5750747,45.0397913 19.1939824,53.2146922 18.9950947,53.6134678 L18.2989874,55.2085704 L15.5145585,49.2269357 Z M1.39352598,37.36336 C1.39352598,43.3449948 6.26627663,48.1303026 12.2329101,48.1303026 L12.332354,48.1303026 C13.4262368,48.1303026 14.6195635,47.9309148 15.6140024,47.5321391 L16.3101096,47.1333635 L18.3984313,51.3205078 C19.4923141,48.7284661 21.5806358,43.6440765 22.2767431,41.4508104 C22.7739625,40.0550957 23.0722942,38.6593809 23.271182,37.2636661 C23.271182,31.2820313 18.3984313,26.4967235 12.4317979,26.4967235 L12.332354,26.4967235 C6.36572052,26.4967235 1.49296987,31.3817252 1.39352598,37.36336 Z"></path>
		<path d="M13.4166667 32L18 44 16.2685185 44 14.9444444 40.3793103 9.9537037 40.3793103 8.62962963 44 7 44 11.5833333 32 13.4166667 32zM14.4351852 38.9310345L12.5 33.3448276 10.462963 38.9310345 14.4351852 38.9310345zM39.6505583 39.4778919C37.9338445 39.973835 36.1161474 40.2714009 34.2984504 40.2714009 22.9883355 40.1722123 13.8998503 31.0468586 14.0008334 19.9377325 14.1018166 8.82860636 23.3922681-.0983699988 34.7023831.000818627504 45.9115148.100007254 55 9.12617224 55 20.1361098 54.6970505 22.715014 54.1921346 25.1947297 53.2832861 27.6744454 51.6675554 32.534688 46.012498 45.825964 45.7095485 46.4210957L44.5987336 49 39.6505583 39.4778919zM36.0151643 10.9115675L33.0866524 10.9115675 25.714881 29.6582179 28.3404434 29.6582179 30.46109 24.0044662 38.5397435 24.0044662 40.66039 29.6582179 43.4879187 29.6582179 36.0151643 10.9115675zM37.7318781 21.921505L31.2689553 21.921505 34.5004167 13.1929059 34.6013999 13.1929059 37.7318781 21.921505z"></path>
	</g>
</svg>
