<svg id="forum_two" width="50" height="72" viewBox="0 0 50 72">
	<g fill="currentColor" fill-rule="nonzero">
		<path d="M40.6128764,30.1613416 C39.5925368,30.4633412 38.4701634,30.6646742 37.3477899,30.6646742 C34.0284004,30.6382717 30.8571885,29.3049419 28.5388649,26.960979 C26.2205413,24.6170161 24.9471558,21.4565938 25.0016816,18.1820252 C25.1037156,11.3367016 30.715583,5.90070932 37.6538917,6.00137584 C44.4901666,6.10204237 50,11.5380347 50,18.2826918 C49.7959321,19.8933562 49.4898302,21.403354 48.9796605,22.9133519 C47.9593209,25.9333476 44.4901666,34.087336 44.3881326,34.3893356 L43.6738949,36 L40.6128764,30.1613416 Z M26.328123,18.3833583 C26.430157,24.3226832 31.3277867,29.1546764 37.3477899,29.1546764 C38.4701634,29.1546764 39.5925368,28.9533433 40.6128764,28.5506772 L41.327114,28.2486777 L43.469827,32.3760051 C44.5922005,29.7586755 46.6328796,24.7253493 47.3471172,22.6113523 C47.857287,21.3026875 48.1633889,19.8933562 48.3674568,18.4840248 C48.2654228,12.5446999 43.3677931,7.71270675 37.3477899,7.71270675 C34.4791678,7.65880322 31.7063844,8.73165221 29.6396832,10.6951374 C27.572982,12.6586227 26.3817375,15.3518286 26.328123,18.1820252 L26.328123,18.3833583 Z"></path>
		<path d="M38.6128764,13 L43.2044042,24.3785311 L41.469827,24.3785311 L40.2454196,20.9849341 L35.3477899,20.9849341 L34.0213485,24.3785311 L32.4908392,24.3785311 L36.9803331,13 L38.6128764,13 Z M39.7352498,19.6873823 L37.7966047,14.3973635 L35.8579597,19.6873823 L39.7352498,19.6873823 Z M38.6128764,60.2109228 C37.5925368,60.5103578 36.4701634,60.7099812 35.3477899,60.7099812 C32.0284004,60.6838029 28.8571885,59.3617955 26.5388649,57.0377373 C24.2205413,54.7136791 22.9471558,51.5800947 23.0016816,48.3333333 C23.1037156,41.5461394 28.715583,36.1563089 35.6538917,36.2561205 C42.4901666,36.3559322 48,41.7457627 48,48.433145 C47.7959321,50.0301318 47.4898302,51.527307 46.9796605,53.0244821 C45.9593209,56.0188324 42.4901666,64.1035782 42.3881326,64.4030132 L41.6738949,66 L38.6128764,60.2109228 Z M24.2260891,48.433145 C24.328123,54.3220339 29.2257527,59.1129944 35.2457559,59.1129944 C36.3681294,59.1129944 37.4905029,58.913371 38.5108424,58.5141243 L39.2250801,58.2146893 L41.3677931,62.306968 C42.4901666,59.7118644 44.5308456,54.7212806 45.2450833,52.6252354 C45.755253,51.3276836 46.0613549,49.9303202 46.2654228,48.5329567 C46.1633889,42.6440678 41.2657591,37.8531073 35.2457559,37.8531073 C29.2257527,37.7532957 24.328123,42.4444444 24.2260891,48.3333333 L24.2260891,48.433145 Z"></path>
		<path d="M36.2857143 43L41 54 39.2190476 54 37.9619048 50.7192982 32.9333333 50.7192982 31.5714286 54 30 54 34.6095238 43 36.2857143 43zM37.3333333 49.4649123L35.3428571 44.3508772 33.352381 49.4649123 37.3333333 49.4649123zM15.6128764 41.1613416C14.5925368 41.4633412 13.4701634 41.6646742 12.3477899 41.6646742 9.02840044 41.6382717 5.85718848 40.3049419 3.53886491 37.960979 1.22054134 35.6170161-.0528442254 32.4565938.00168163683 29.1820252.103715589 22.3367016 5.71558298 16.9007093 12.6538917 17.0013758 19.4901666 17.1020424 25 22.5380347 25 29.2826918 24.7959321 30.8933562 24.4898302 32.403354 23.9796605 33.9133519 22.9593209 36.9333476 19.4901666 45.087336 19.3881326 45.3893356L18.6738949 47 15.6128764 41.1613416zM1.32812302 29.2826918C1.43015697 35.2220167 6.32778669 40.0540098 12.3477899 40.0540098 13.4701634 40.0540098 14.5925368 39.8526768 15.6128764 39.4500107L16.327114 39.1480111 18.469827 43.2753386C19.5922005 40.658009 21.6328796 35.6246828 22.3471172 33.5106858 22.857287 32.202021 23.1633889 30.7926896 23.3674568 29.3833583 23.3674568 23.3433669 18.469827 18.5113737 12.3477899 18.5113737 6.22575274 18.5113737 1.32812302 23.2427003 1.32812302 29.2826918z"></path>
		<path d="M13.3301887,24 L18,35 L16.2358491,35 L14.990566,31.7192982 L10.009434,31.7192982 L8.66037736,35 L7,35 L11.5660377,24 L13.3301887,24 Z M14.4716981,30.4649123 L12.5,25.3508772 L10.5283019,30.4649123 L14.4716981,30.4649123 Z"></path>
	</g>
</svg>
