<svg id="hexagon-logo" aria-labelledby="logoTitle logoDesc" role="img" version="1.0" xmlns="http://www.w3.org/2000/svg" width="100%" height="100%" viewBox="0 0 340.000000 250.000000" preserveAspectRatio="xMidYMid meet">
	<title id="logoTitle">QX Hexagon logo</title>
	<desc id="logoDesc">Logo representing a stylus theme for qruiser.com, found at https://github.com/BlackSkorpio/qx-hexagon</desc>
	<defs>
		<clipPath id="hex-clip">
			<rect x="-50" y="-29.5" width="350" height="71"/>
			<rect x="-50" y="100.5" width="350" height="71"/>
		</clipPath>
		<style>
			.hex-svg {}
			.clr-01 {fill:#166a8f}
			.clr-02 {fill:#f6911f}
			.clr-03 {fill:#ffdd29}
			.clr-04 {fill:#a51e24}
			.clr-05 {fill:#f1592a}
			.clr-06 {fill:#781c20}
			.clr-07 {fill:#d02128}
			.clr-08 {fill:#b367b2}
			.clr-09 {fill:#d9b3da}
			.clr-10 {fill:#4d014c}
			.clr-11 {fill:#9a3198}
			.clr-12 {fill:#340033}
			.clr-13 {fill:#690067}
			.clr-14 {fill:#042f85}
			.clr-15 {fill:#0d2659}
			.clr-16 {fill:#027fcc}
			.clr-17 {fill:#1845a2}
			.clr-18 {fill:#0daee2}
			.clr-19 {fill:#0d51d9}
			.hex-name {fill:#166a8f}
			.hex-slogan {fill:#e68523}
		</style>
	</defs>
	<g class="hex-bgsvg" transform="translate(107.5,53.76127624511719)">
		<g class="clr-01" fill="#166a8f">
			<g clip-path="url(#hex-clip)">
				<svg class="hex-svg" x="0" y="0" width="125" height="142.47744543854998">
					<svg id="hexagon" xmlns="http://www.w3.org/2000/svg" viewBox="0 0 267.13 304.48">
						<g>
							<path class="clr-02" fill="#f6911f" d="M63.36 121.57v73.17l-31.68-18.3L0 158.15l31.68-18.29 31.68-18.29z"/>
							<path class="clr-03" fill="#ffdd29" d="M0 158.15V84.99l31.68 18.29 31.68 18.29-31.68 18.29L0 158.15z"/>
							<path class="clr-04" fill="#a51e24" d="M63.36 267.9v-73.16l31.69 18.29 31.68 18.29-31.68 18.29-31.69 18.29z"/>
							<path class="clr-05" fill="#f1592a" d="M0 231.32l31.68-18.29 31.68-18.29-31.68-18.3L0 158.15v73.17z"/>
							<path class="clr-06" fill="#781c20" d="M126.73 231.32l-31.68 18.29-31.69 18.29 31.69 18.29 31.68 18.29v-73.16z"/>
							<path class="clr-07" fill="#d02128" d="M63.36 194.74v73.16l-31.68-18.29L0 231.32l31.68-18.29 31.68-18.29z"/>
							<path class="clr-08" fill="#b367b2" d="M203.77 121.57v73.17l31.68-18.3 31.68-18.29-31.68-18.29-31.68-18.29z"/>
							<path class="clr-09" fill="#d9b3da" d="M267.13 158.15V84.99l-31.68 18.29-31.68 18.29 31.68 18.29 31.68 18.29z"/>
							<path class="clr-10" fill="#4d014c" d="M203.76 267.9l.01-36.58v-36.58l-31.69 18.29-31.68 18.29 31.68 18.29 31.68 18.29z"/>
							<path class="clr-11" fill="#9a3198" d="M267.13 231.32l-31.68-18.29-31.68-18.29 31.68-18.3 31.68-18.29v73.17z"/>
							<path class="clr-12" fill="#340033" d="M140.4 231.32l31.68 18.29 31.68 18.29-31.68 18.29-31.68 18.29v-73.16z"/>
							<path class="clr-13" fill="#690067" d="M203.77 194.74v36.58l-.01 36.58 31.69-18.29 31.68-18.29-31.68-18.29-31.68-18.29z"/>
							<path class="clr-14" fill="#042f85" d="M196.93 109.75l-31.68-18.29-31.69-18.29 31.69-18.29 31.68-18.3v73.17z"/>
							<path class="clr-15" fill="#0d2659" d="M196.93 36.58l31.68 18.29 31.68 18.3-31.68 18.29-31.68 18.29V36.58z"/>
							<path class="clr-16" fill="#027fcc" d="M70.2 36.58l31.68 18.3 31.68 18.29-31.68 18.29-31.68 18.29V36.58z"/>
							<path class="clr-17" fill="#1845a2" d="M133.56 0v73.17l31.69-18.29 31.68-18.3-31.68-18.29L133.56 0z"/>
							<path class="clr-18" fill="#0daee2" d="M70.2 109.75V36.58l-31.68 18.3L6.84 73.17l31.68 18.29 31.68 18.29z"/>
							<path class="clr-19" fill="#0d51d9" d="M133.56 73.17l-31.68-18.29-31.68-18.3 31.68-18.29L133.56 0v73.17z"/>
						</g>
					</svg>
				</svg>
			</g>
			<g id="hex-text" transform="translate(-34.6640625,52.11958312988281)">
				<g class="hex-name" transform="translate(0,0)">
					<path transform="translate(7.5600000000000005,22.400000000000002)" d="M7.25-6.55L7.25-6.55L7.25-6.55Q7.25-8.26 7.74-11.08L7.74-11.08L7.74-11.08Q8.23-13.90 9.03-15.94L9.03-15.94L9.03-15.94Q9.84-17.99 11.20-19.50L11.20-19.50L11.20-19.50Q13.83-22.40 19.50-22.40L19.50-22.40L19.50-22.40Q23.91-22.40 25.81-20.63L25.81-20.63L25.81-20.63Q27.72-18.87 27.72-15.37L27.72-15.37L27.72-15.37Q27.72-11.87 26.71-8.66L26.71-8.66L26.71-8.66Q25.69-5.46 24.26-3.75L24.26-3.75L26.43-2.28L23.98 1.75L17.82 0.53L18.06-0.81L15.09 0L15.09 0Q10.85 0 9.05-1.70L9.05-1.70L9.05-1.70Q7.25-3.40 7.25-6.55ZM13.86-5.46L16.63-5.46L16.63-5.46Q17.99-5.46 18.66-5.79L18.66-5.79L18.66-5.79Q19.32-6.13 19.53-7.32L19.53-7.32L21.14-16.42L18.34-16.42L18.34-16.42Q17.01-16.42 16.35-16.08L16.35-16.08L16.35-16.08Q15.68-15.75 15.47-14.56L15.47-14.56L13.86-5.46ZM-7.18-11.80L6.83-11.80L6.58-10.33L-7.18-11.80ZM-7.56-8.44L6.34-8.44L6.34-8.44Q6.23-7.63 6.23-6.97L6.23-6.97L-7.56-8.44ZM-6.34-15.16L7.67-15.16L7.25-13.72L-6.34-15.16ZM-7.11-5.08L6.27-5.08L6.27-5.08Q6.34-4.48 6.55-3.61L6.55-3.61L-7.11-5.08ZM-4.69-18.52L9.10-18.52L9.10-18.52Q8.61-17.61 8.40-17.12L8.40-17.12L-4.69-18.52ZM-3.75-1.68L7.53-1.68L7.53-1.68Q8.02-1.16 8.93-0.39L8.93-0.39L-3.75-1.68ZM0.14-21.88L12.43-21.88L12.43-21.88Q11.41-21.25 10.85-20.72L10.85-20.72L0.14-21.88ZM41.89-18.52L50.78-18.52L50.78-18.52Q55.89-18.52 55.89-13.90L55.89-13.90L55.89-13.90Q55.89-11.80 55.05-9.54L55.05-9.54L55.05-9.54Q54.21-7.28 52.21-6.16L52.21-6.16L54.21 0L47.66 0L46.33-5.39L45.49-5.39L44.55 0L38.67 0L41.89-18.52ZM49.27-11.24L49.48-12.46L49.48-12.46Q49.48-12.50 49.52-12.81L49.52-12.81L49.52-12.81Q49.52-13.41 47.66-13.41L47.66-13.41L46.89-13.41L46.33-10.19L47.45-10.19L47.45-10.19Q49.06-10.19 49.27-11.24L49.27-11.24ZM37.79-1.68L37.51-0.11L22.67-1.68L37.79-1.68ZM38.98-8.44L38.70-6.86L23.86-8.44L38.98-8.44ZM39.58-11.80L39.30-10.22L24.46-11.80L39.58-11.80ZM40.17-15.16L39.89-13.58L25.05-15.16L40.17-15.16ZM40.73-18.52L40.48-16.94L25.65-18.52L40.73-18.52ZM38.39-5.08L38.11-3.50L23.27-5.08L38.39-5.08ZM67.22-8.44L66.94-6.86L52.10-8.44L67.22-8.44ZM67.81-11.80L67.53-10.22L52.69-11.80L67.81-11.80ZM68.41-15.16L68.13-13.58L53.29-15.16L68.41-15.16ZM68.97-18.52L68.72-16.94L53.88-18.52L68.97-18.52ZM51.99-5.08L66.80-5.08L66.80-4.38L66.80-4.38Q66.80-3.78 66.83-3.50L66.83-3.50L51.99-5.08ZM68.16-0.11L68.16-0.11L53.32-1.68L67.15-1.68L67.15-1.68Q67.53-0.70 68.16-0.11ZM73.59-4.90L75.34-4.90L75.34-4.90Q76.28-4.90 76.65-5.13L76.65-5.13L76.65-5.13Q77.02-5.36 77.16-6.23L77.16-6.23L79.36-18.52L85.24-18.52L83.42-8.09L83.42-8.09Q82.58-3.19 80.71-1.38L80.71-1.38L80.71-1.38Q78.84 0.42 74.32 0.42L74.32 0.42L74.32 0.42Q70.72 0.42 69.28-0.65L69.28-0.65L69.28-0.65Q67.84-1.72 67.84-4.38L67.84-4.38L67.84-4.38Q67.84-5.85 68.23-8.09L68.23-8.09L70.09-18.52L75.97-18.52L73.59-4.90ZM101.47 0L95.35 0L98.57-18.52L104.73-18.52L101.47 0ZM94.47-1.68L94.19-0.11L79.35-1.68L94.47-1.68ZM95.66-8.44L95.38-6.86L80.54-8.44L95.66-8.44ZM96.26-11.80L95.98-10.22L81.14-11.80L96.26-11.80ZM96.85-15.16L96.57-13.58L81.73-15.16L96.85-15.16ZM97.41-18.52L97.17-16.94L82.33-18.52L97.41-18.52ZM95.07-5.08L94.79-3.50L79.95-5.08L95.07-5.08ZM114.62-0.11L99.99-1.68L115.11-1.68L114.62-0.11ZM102.69-15.16L117.77-15.16L117.77-15.16Q117.56-14.60 117.32-13.58L117.32-13.58L102.69-15.16ZM116.90-10.50L116.90-10.50L116.90-10.22L102.06-11.80L116.97-11.80L116.97-11.80Q116.90-10.96 116.90-10.50ZM116.23-5.08L115.74-3.54L101.15-5.08L116.23-5.08ZM105.10-18.52L120.19-18.52L120.19-18.52Q119.24-17.82 118.75-17.05L118.75-17.05L105.10-18.52ZM103.42-8.44L117.21-8.44L117.21-8.44Q117.53-7.53 118.23-6.86L118.23-6.86L103.42-8.44ZM132.86-18.13L131.18-13.02L131.18-13.02Q128.80-13.58 127.12-13.58L127.12-13.58L127.12-13.58Q125.44-13.58 124.63-13.48L124.63-13.48L124.46-12.46L126.21-12.25L126.21-12.25Q131.84-11.52 131.84-7.60L131.84-7.60L131.84-7.60Q131.84-7.14 131.63-5.90L131.63-5.90L131.63-5.90Q131.42-4.66 130.93-3.50L130.93-3.50L130.93-3.50Q130.44-2.35 129.69-1.63L129.69-1.63L129.69-1.63Q128.94-0.91 128.22-0.47L128.22-0.47L128.22-0.47Q127.50-0.04 126.38 0.14L126.38 0.14L126.38 0.14Q124.63 0.42 121.71 0.42L121.71 0.42L121.71 0.42Q118.79 0.42 115.81-0.39L115.81-0.39L117.53-5.57L117.53-5.57Q120.26-4.80 122.30-4.80L122.30-4.80L122.30-4.80Q124.35-4.80 125.19-4.90L125.19-4.90L125.37-6.02L123.16-6.27L123.16-6.27Q120.33-6.58 119.14-7.60L119.14-7.60L119.14-7.60Q117.95-8.61 117.95-10.50L117.95-10.50L117.95-10.50Q117.95-11.20 118.12-12.25L118.12-12.25L118.12-12.25Q118.82-16.00 120.64-17.43L120.64-17.43L120.64-17.43Q122.46-18.87 126.19-18.87L126.19-18.87L126.19-18.87Q129.92-18.87 132.86-18.13L132.86-18.13ZM156.61-10.89L156.02-7.53L150.80-7.53L150.38-5.15L156.86-5.15L155.95 0L143.59 0L146.81-18.52L159.13-18.52L157.49-13.27L151.78-13.27L151.36-10.89L156.61-10.89ZM142.72-1.68L142.44-0.11L127.60-1.68L142.72-1.68ZM143.91-8.44L143.63-6.86L128.79-8.44L143.91-8.44ZM144.50-11.80L144.22-10.22L129.38-11.80L144.50-11.80ZM145.10-15.16L144.82-13.58L129.98-15.16L145.10-15.16ZM145.66-18.52L145.41-16.94L130.57-18.52L145.66-18.52ZM143.31-5.08L143.03-3.50L128.19-5.08L143.31-5.08ZM172.77-18.52L181.66-18.52L181.66-18.52Q186.77-18.52 186.77-13.90L186.77-13.90L186.77-13.90Q186.77-11.80 185.93-9.54L185.93-9.54L185.93-9.54Q185.09-7.28 183.10-6.16L183.10-6.16L185.09 0L178.55 0L177.22-5.39L176.38-5.39L175.43 0L169.55 0L172.77-18.52ZM180.16-11.24L180.37-12.46L180.37-12.46Q180.37-12.50 180.40-12.81L180.40-12.81L180.40-12.81Q180.40-13.41 178.55-13.41L178.55-13.41L177.78-13.41L177.22-10.19L178.34-10.19L178.34-10.19Q179.95-10.19 180.16-11.24L180.16-11.24ZM168.68-1.68L168.40-0.11L153.56-1.68L168.68-1.68ZM169.87-8.44L169.59-6.86L154.75-8.44L169.87-8.44ZM170.46-11.80L170.18-10.22L155.34-11.80L170.46-11.80ZM171.06-15.16L170.78-13.58L155.94-15.16L171.06-15.16ZM171.62-18.52L171.37-16.94L156.53-18.52L171.62-18.52ZM169.27-5.08L168.99-3.50L154.15-5.08L169.27-5.08Z"/>
				</g>
				<g class="hex-slogan" fill="#e68523" transform="translate(65.64453125,29.3984375)">
					<path transform="translate(-1.62,11.808000000000002)" d="M1.62-11.81L1.62 0L3.11 0L3.11-5.56L8.60-5.56L8.60 0L10.12 0L10.12-11.81L8.60-11.81L8.60-6.86L3.11-6.86L3.11-11.81ZM12.56-4.36C12.56-3.64 12.67-2.99 12.89-2.43C13.10-1.87 13.40-1.39 13.78-1.00C14.16-0.61 14.60-0.31 15.11-0.10C15.62 0.11 16.17 0.22 16.76 0.22C17.36 0.22 17.89 0.13 18.36-0.05C18.83-0.23 19.25-0.44 19.64-0.68L19.12-1.66C18.79-1.45 18.45-1.29 18.10-1.16C17.74-1.04 17.36-0.97 16.94-0.97C16.10-0.97 15.42-1.25 14.90-1.80C14.37-2.35 14.08-3.10 14.02-4.05L19.93-4.05C19.96-4.27 19.98-4.54 19.98-4.86C19.98-5.48 19.90-6.05 19.75-6.55C19.59-7.06 19.36-7.49 19.07-7.85C18.78-8.21 18.41-8.48 17.97-8.68C17.54-8.87 17.04-8.96 16.49-8.96C15.98-8.96 15.50-8.86 15.03-8.65C14.56-8.44 14.14-8.14 13.78-7.74C13.41-7.34 13.12-6.86 12.90-6.29C12.68-5.72 12.56-5.08 12.56-4.36ZM18.68-5.02L14.00-5.02C14.05-5.47 14.15-5.86 14.30-6.20C14.45-6.54 14.64-6.83 14.87-7.07C15.10-7.30 15.35-7.48 15.63-7.61C15.92-7.73 16.21-7.79 16.52-7.79C17.21-7.79 17.74-7.56 18.12-7.08C18.50-6.61 18.68-5.92 18.68-5.02ZM23.65-4.57L20.79 0L22.34 0L23.53-2.03C23.67-2.31 23.81-2.58 23.96-2.84C24.10-3.09 24.25-3.35 24.41-3.60L24.48-3.60C24.65-3.35 24.81-3.09 24.97-2.83L25.43-2.03L26.71 0L28.31 0L25.47-4.41L28.12-8.75L26.57-8.75L25.51-6.82C25.37-6.58 25.24-6.34 25.11-6.09C24.98-5.85 24.85-5.60 24.71-5.36L24.64-5.36C24.49-5.60 24.34-5.85 24.19-6.09C24.05-6.34 23.91-6.58 23.78-6.82L22.61-8.75L21.01-8.75ZM29.43-2.27C29.43-1.48 29.67-0.86 30.16-0.43C30.65 0 31.26 0.22 32.00 0.22C32.54 0.22 33.06 0.09 33.54-0.15C34.03-0.40 34.48-0.70 34.90-1.04L34.94-1.04L35.06 0L36.29 0L36.29-5.36C36.29-6.46 36.05-7.33 35.57-7.98C35.09-8.64 34.31-8.96 33.25-8.96C32.54-8.96 31.89-8.84 31.30-8.60C30.71-8.35 30.22-8.09 29.81-7.83L30.40-6.80C30.75-7.04 31.14-7.26 31.58-7.45C32.02-7.64 32.50-7.74 33.01-7.74C33.37-7.74 33.67-7.68 33.89-7.55C34.12-7.43 34.30-7.26 34.44-7.06C34.58-6.85 34.68-6.62 34.73-6.35C34.79-6.09 34.81-5.82 34.81-5.54C32.94-5.34 31.58-4.98 30.72-4.47C29.86-3.96 29.43-3.23 29.43-2.27ZM30.89-2.38C30.89-2.65 30.95-2.91 31.09-3.14C31.22-3.38 31.44-3.58 31.74-3.76C32.05-3.94 32.45-4.10 32.96-4.23C33.46-4.36 34.08-4.48 34.81-4.57L34.81-2.14C34.39-1.76 33.99-1.47 33.62-1.27C33.24-1.07 32.84-0.97 32.42-0.97C31.99-0.97 31.62-1.08 31.33-1.30C31.04-1.51 30.89-1.87 30.89-2.38ZM39.71 1.48C39.71 1.22 39.78 0.97 39.92 0.72C40.07 0.47 40.30 0.23 40.61 0C40.80 0.06 41.00 0.10 41.19 0.12C41.39 0.14 41.57 0.14 41.74 0.14L43.25 0.14C43.83 0.14 44.27 0.22 44.57 0.38C44.87 0.53 45.02 0.82 45.02 1.22C45.02 1.45 44.95 1.67 44.82 1.89C44.69 2.11 44.50 2.30 44.26 2.46C44.02 2.62 43.73 2.75 43.39 2.85C43.05 2.96 42.67 3.01 42.25 3.01C41.45 3.01 40.83 2.87 40.38 2.59C39.93 2.32 39.71 1.94 39.71 1.48ZM38.41 1.67C38.41 2.06 38.50 2.39 38.67 2.68C38.85 2.97 39.09 3.22 39.41 3.42C39.73 3.62 40.11 3.78 40.55 3.88C41.00 3.98 41.49 4.03 42.03 4.03C42.71 4.03 43.33 3.95 43.88 3.79C44.42 3.63 44.89 3.41 45.27 3.13C45.65 2.86 45.95 2.53 46.15 2.17C46.36 1.80 46.46 1.42 46.46 1.01C46.46 0.28 46.20-0.26 45.69-0.59C45.18-0.91 44.42-1.08 43.40-1.08L41.71-1.08C41.11-1.08 40.70-1.17 40.48-1.35C40.27-1.53 40.16-1.76 40.16-2.03C40.16-2.27 40.21-2.48 40.32-2.64C40.43-2.80 40.56-2.95 40.72-3.08C40.92-2.98 41.14-2.91 41.36-2.85C41.59-2.80 41.81-2.77 42.03-2.77C42.47-2.77 42.89-2.84 43.28-2.99C43.67-3.13 44.01-3.33 44.30-3.59C44.59-3.85 44.81-4.17 44.98-4.55C45.15-4.92 45.23-5.35 45.23-5.81C45.23-6.19 45.17-6.53 45.03-6.84C44.89-7.15 44.72-7.41 44.51-7.61L46.31-7.61L46.31-8.75L43.27-8.75C43.10-8.81 42.92-8.86 42.71-8.90C42.49-8.94 42.27-8.96 42.03-8.96C41.59-8.96 41.16-8.89 40.76-8.75C40.36-8.60 40.01-8.40 39.71-8.13C39.41-7.86 39.17-7.53 39.00-7.15C38.82-6.76 38.74-6.33 38.74-5.85C38.74-5.32 38.85-4.86 39.09-4.46C39.32-4.05 39.58-3.73 39.87-3.49L39.87-3.42C39.64-3.26 39.43-3.05 39.22-2.77C39.02-2.50 38.92-2.17 38.92-1.80C38.92-1.45 38.99-1.16 39.14-0.93C39.29-0.69 39.47-0.51 39.69-0.38L39.69-0.31C39.29-0.03 38.98 0.28 38.75 0.61C38.53 0.95 38.41 1.30 38.41 1.67ZM42.03-3.76C41.78-3.76 41.54-3.81 41.32-3.91C41.10-4.00 40.90-4.14 40.73-4.32C40.55-4.50 40.42-4.72 40.32-4.98C40.22-5.23 40.18-5.53 40.18-5.85C40.18-6.50 40.36-7.00 40.72-7.35C41.08-7.71 41.51-7.88 42.03-7.88C42.55-7.88 42.98-7.71 43.34-7.35C43.70-7.00 43.88-6.50 43.88-5.85C43.88-5.53 43.84-5.23 43.74-4.98C43.64-4.72 43.51-4.50 43.34-4.32C43.16-4.14 42.96-4.00 42.74-3.91C42.52-3.81 42.28-3.76 42.03-3.76ZM47.25-4.36C47.25-3.64 47.36-2.99 47.58-2.42C47.80-1.85 48.10-1.37 48.47-0.98C48.85-0.59 49.28-0.29 49.76-0.09C50.25 0.11 50.76 0.22 51.30 0.22C51.84 0.22 52.35 0.11 52.84-0.09C53.33-0.29 53.75-0.59 54.13-0.98C54.50-1.37 54.80-1.85 55.02-2.42C55.24-2.99 55.35-3.64 55.35-4.36C55.35-5.09 55.24-5.74 55.02-6.31C54.80-6.88 54.50-7.36 54.13-7.76C53.75-8.15 53.33-8.45 52.84-8.66C52.35-8.86 51.84-8.96 51.30-8.96C50.76-8.96 50.25-8.86 49.76-8.66C49.28-8.45 48.85-8.15 48.47-7.76C48.10-7.36 47.80-6.88 47.58-6.31C47.36-5.74 47.25-5.09 47.25-4.36ZM48.78-4.36C48.78-4.86 48.84-5.32 48.96-5.73C49.08-6.15 49.25-6.50 49.47-6.80C49.69-7.10 49.96-7.34 50.27-7.50C50.59-7.66 50.93-7.74 51.30-7.74C51.67-7.74 52.01-7.66 52.33-7.50C52.64-7.34 52.91-7.10 53.13-6.80C53.35-6.50 53.52-6.15 53.64-5.73C53.76-5.32 53.82-4.86 53.82-4.36C53.82-3.85 53.76-3.40 53.64-2.99C53.52-2.58 53.35-2.23 53.13-1.94C52.91-1.64 52.64-1.41 52.33-1.25C52.01-1.09 51.67-1.01 51.30-1.01C50.93-1.01 50.59-1.09 50.27-1.25C49.96-1.41 49.69-1.64 49.47-1.94C49.25-2.23 49.08-2.58 48.96-2.99C48.84-3.40 48.78-3.85 48.78-4.36ZM57.65-8.75L57.65 0L59.13 0L59.13-6.34C59.57-6.78 59.97-7.12 60.32-7.34C60.67-7.57 61.07-7.69 61.52-7.69C62.10-7.69 62.52-7.50 62.78-7.14C63.05-6.77 63.18-6.17 63.18-5.35L63.18 0L64.66 0L64.66-5.54C64.66-6.67 64.44-7.52 64.02-8.10C63.59-8.68 62.92-8.96 61.99-8.96C61.38-8.96 60.84-8.82 60.38-8.54C59.92-8.26 59.48-7.91 59.06-7.49L59.00-7.49L58.88-8.75Z"/>
				</g>
			</g>
		</g>
	</g>
</svg>
