<?xml version="1.0" encoding="utf-8"?>
<!-- Generator: Adobe Illustrator 20.1.0, SVG Export Plug-In . SVG Version: 6.00 Build 0)  -->
<svg version="1.1" id="Layer_1" xmlns="http://www.w3.org/2000/svg" xmlns:xlink="http://www.w3.org/1999/xlink" x="0px" y="0px"
	 viewBox="0 0 200 200" style="enable-background:new 0 0 200 200;" xml:space="preserve">
<style type="text/css">
	.st0{fill:#020210;}
	.st1{fill:#C5ECEB;}
	.st2{fill:#6D6D6D;}
	.st3{fill:#CC4E46;}
	.st4{fill:#FFFFFF;}
	.st5{fill:#B5B5B5;}
	.st6{fill:#F9FFA4;}
	.st7{fill:#50BA94;}
</style>
<g>
	<path class="st0" d="M100,161.1c-33.6,0-61-27.4-61-61c0-33.6,27.4-61,61-61s61,27.4,61,61C161,133.8,133.6,161.1,100,161.1z
		 M100,41.1c-32.5,0-59,26.5-59,59s26.5,59,59,59c32.5,0,59-26.5,59-59S132.5,41.1,100,41.1z"/>
</g>
<g>
	<rect x="12" y="84.1" class="st1" width="176" height="32"/>
</g>
<g>
	<path class="st0" d="M188,83.1H12c-0.6,0-1,0.4-1,1v32c0,0.6,0.4,1,1,1h176c0.6,0,1-0.4,1-1v-32C189,83.6,188.6,83.1,188,83.1z
		 M187,115.1h-2v-3c0-0.6-0.4-1-1-1s-1,0.4-1,1v3h-2v-3c0-0.6-0.4-1-1-1s-1,0.4-1,1v3h-2v-3c0-0.6-0.4-1-1-1s-1,0.4-1,1v3h-2v-3
		c0-0.6-0.4-1-1-1s-1,0.4-1,1v3h-2v-3c0-0.6-0.4-1-1-1s-1,0.4-1,1v3h-2v-3c0-0.6-0.4-1-1-1s-1,0.4-1,1v3h-2v-3c0-0.6-0.4-1-1-1
		s-1,0.4-1,1v3h-2v-3c0-0.6-0.4-1-1-1s-1,0.4-1,1v3H45v-3c0-0.6-0.4-1-1-1s-1,0.4-1,1v3h-2v-3c0-0.6-0.4-1-1-1s-1,0.4-1,1v3h-2v-3
		c0-0.6-0.4-1-1-1s-1,0.4-1,1v3h-2v-3c0-0.6-0.4-1-1-1s-1,0.4-1,1v3h-2v-3c0-0.6-0.4-1-1-1s-1,0.4-1,1v3h-2v-3c0-0.6-0.4-1-1-1
		s-1,0.4-1,1v3h-2v-3c0-0.6-0.4-1-1-1s-1,0.4-1,1v3h-2v-3c0-0.6-0.4-1-1-1s-1,0.4-1,1v3h-2v-26h174V115.1z M187,87.1H13v-2h174V87.1
		z"/>
	<path class="st0" d="M16,105.1c0.6,0,1-0.4,1-1v-8c0-0.6-0.4-1-1-1s-1,0.4-1,1v8C15,104.7,15.4,105.1,16,105.1z"/>
</g>
<g>
	<g>
		<g>
			<path class="st0" d="M162.1,65.1c-0.2-0.2-0.3-0.4-0.3-0.7l0,0c0-0.3,0.1-0.5,0.3-0.7l0,0c0.2-0.2,0.4-0.3,0.7-0.3l0,0
				c0.3,0,0.5,0.1,0.7,0.3l0,0c0.2,0.2,0.3,0.5,0.3,0.7l0,0c0,0.3-0.1,0.5-0.3,0.7l0,0c-0.2,0.2-0.4,0.3-0.7,0.3l0,0
				C162.5,65.4,162.2,65.3,162.1,65.1z"/>
		</g>
		<g>
			<path class="st0" d="M36.5,137.5c-0.2-0.2-0.3-0.5-0.3-0.7l0,0c0-0.3,0.1-0.5,0.3-0.7l0,0c0.2-0.2,0.4-0.3,0.7-0.3l0,0
				c0.3,0,0.5,0.1,0.7,0.3l0,0c0.2,0.2,0.3,0.5,0.3,0.7l0,0c0,0.3-0.1,0.5-0.3,0.7l0,0c-0.2,0.2-0.4,0.3-0.7,0.3l0,0
				C37,137.8,36.7,137.6,36.5,137.5z"/>
		</g>
	</g>
	<g>
		<g>
			<path class="st0" d="M160.1,61.9c-0.2-0.2-0.3-0.4-0.3-0.7l0,0c0-0.3,0.1-0.5,0.3-0.7l0,0c0.2-0.2,0.4-0.3,0.7-0.3l0,0
				c0.3,0,0.5,0.1,0.7,0.3l0,0c0.2,0.2,0.3,0.4,0.3,0.7l0,0c0,0.3-0.1,0.5-0.3,0.7l0,0c-0.2,0.2-0.4,0.3-0.7,0.3l0,0
				C160.5,62.2,160.3,62.1,160.1,61.9z"/>
		</g>
		<g>
			<path class="st0" d="M38.5,140.7c-0.2-0.2-0.3-0.5-0.3-0.7l0,0c0-0.3,0.1-0.5,0.3-0.7l0,0c0.2-0.2,0.4-0.3,0.7-0.3l0,0
				c0.3,0,0.5,0.1,0.7,0.3l0,0c0.2,0.2,0.3,0.5,0.3,0.7l0,0c0,0.3-0.1,0.5-0.3,0.7l0,0c-0.2,0.2-0.4,0.3-0.7,0.3l0,0
				C38.9,141,38.7,140.9,38.5,140.7z"/>
		</g>
	</g>
	<g>
		<g>
			<path class="st0" d="M157.9,58.8c-0.2-0.2-0.3-0.4-0.3-0.7l0,0c0-0.3,0.1-0.5,0.3-0.7l0,0c0.2-0.2,0.4-0.3,0.7-0.3l0,0
				c0.3,0,0.5,0.1,0.7,0.3l0,0c0.2,0.2,0.3,0.4,0.3,0.7l0,0c0,0.3-0.1,0.5-0.3,0.7l0,0c-0.2,0.2-0.4,0.3-0.7,0.3l0,0
				C158.4,59,158.1,58.9,157.9,58.8z"/>
		</g>
		<g>
			<path class="st0" d="M40.6,143.8c-0.2-0.2-0.3-0.5-0.3-0.7l0,0c0-0.3,0.1-0.5,0.3-0.7l0,0c0.2-0.2,0.4-0.3,0.7-0.3l0,0
				c0.3,0,0.5,0.1,0.7,0.3l0,0c0.2,0.2,0.3,0.5,0.3,0.7l0,0c0,0.3-0.1,0.5-0.3,0.7l0,0c-0.2,0.2-0.4,0.3-0.7,0.3l0,0
				C41.1,144.1,40.8,144,40.6,143.8z"/>
		</g>
	</g>
	<g>
		<g>
			<path class="st0" d="M155.6,55.7c-0.2-0.2-0.3-0.4-0.3-0.7l0,0c0-0.3,0.1-0.5,0.3-0.7l0,0c0.2-0.2,0.4-0.3,0.7-0.3l0,0
				c0.3,0,0.5,0.1,0.7,0.3l0,0c0.2,0.2,0.3,0.4,0.3,0.7l0,0c0,0.3-0.1,0.5-0.3,0.7l0,0c-0.2,0.2-0.4,0.3-0.7,0.3l0,0
				C156.1,56,155.8,55.9,155.6,55.7z"/>
		</g>
		<g>
			<path class="st0" d="M43,146.8c-0.2-0.2-0.3-0.4-0.3-0.7l0,0c0-0.3,0.1-0.5,0.3-0.7l0,0c0.2-0.2,0.4-0.3,0.7-0.3l0,0
				c0.3,0,0.5,0.1,0.7,0.3l0,0c0.2,0.2,0.3,0.5,0.3,0.7l0,0c0,0.3-0.1,0.5-0.3,0.7l0,0c-0.2,0.2-0.4,0.3-0.7,0.3l0,0
				C43.4,147.1,43.1,147,43,146.8z"/>
		</g>
	</g>
	<g>
		<g>
			<path class="st0" d="M153.2,52.8c-0.2-0.2-0.3-0.4-0.3-0.7l0,0c0-0.3,0.1-0.5,0.3-0.7l0,0c0.2-0.2,0.4-0.3,0.7-0.3l0,0
				c0.3,0,0.5,0.1,0.7,0.3l0,0c0.2,0.2,0.3,0.5,0.3,0.7l0,0c0,0.3-0.1,0.5-0.3,0.7l0,0c-0.2,0.2-0.4,0.3-0.7,0.3l0,0
				C153.6,53.1,153.3,53,153.2,52.8z"/>
		</g>
		<g>
			<path class="st0" d="M45.4,149.7c-0.2-0.2-0.3-0.5-0.3-0.7l0,0c0-0.3,0.1-0.5,0.3-0.7l0,0c0.2-0.2,0.4-0.3,0.7-0.3l0,0
				c0.3,0,0.5,0.1,0.7,0.3l0,0c0.2,0.2,0.3,0.5,0.3,0.7l0,0c0,0.3-0.1,0.5-0.3,0.7l0,0c-0.2,0.2-0.4,0.3-0.7,0.3l0,0
				C45.9,150,45.6,149.9,45.4,149.7z"/>
		</g>
	</g>
	<g>
		<g>
			<path class="st0" d="M150.5,50.1c-0.2-0.2-0.3-0.4-0.3-0.7l0,0c0-0.3,0.1-0.5,0.3-0.7l0,0c0.2-0.2,0.5-0.3,0.7-0.3l0,0
				c0.3,0,0.5,0.1,0.7,0.3l0,0c0.2,0.2,0.3,0.4,0.3,0.7l0,0c0,0.3-0.1,0.5-0.3,0.7l0,0c-0.2,0.2-0.5,0.3-0.7,0.3l0,0
				C151,50.4,150.7,50.3,150.5,50.1z"/>
		</g>
		<g>
			<path class="st0" d="M48,152.5c-0.2-0.2-0.3-0.4-0.3-0.7l0,0c0-0.3,0.1-0.5,0.3-0.7l0,0c0.2-0.2,0.4-0.3,0.7-0.3l0,0
				c0.3,0,0.5,0.1,0.7,0.3l0,0c0.2,0.2,0.3,0.4,0.3,0.7l0,0c0,0.3-0.1,0.5-0.3,0.7l0,0c-0.2,0.2-0.4,0.3-0.7,0.3l0,0
				C48.5,152.8,48.2,152.7,48,152.5z"/>
		</g>
	</g>
	<g>
		<g>
			<path class="st0" d="M147.8,47.5c-0.2-0.2-0.3-0.5-0.3-0.7l0,0c0-0.3,0.1-0.5,0.3-0.7l0,0c0.2-0.2,0.5-0.3,0.7-0.3l0,0
				c0.3,0,0.5,0.1,0.7,0.3l0,0c0.2,0.2,0.3,0.4,0.3,0.7l0,0c0,0.3-0.1,0.5-0.3,0.7l0,0c-0.2,0.2-0.5,0.3-0.7,0.3l0,0
				C148.2,47.8,148,47.7,147.8,47.5z"/>
		</g>
		<g>
			<path class="st0" d="M50.8,155.1c-0.2-0.2-0.3-0.4-0.3-0.7l0,0c0-0.3,0.1-0.5,0.3-0.7l0,0c0.2-0.2,0.5-0.3,0.7-0.3l0,0
				c0.3,0,0.5,0.1,0.7,0.3l0,0c0.2,0.2,0.3,0.5,0.3,0.7l0,0c0,0.3-0.1,0.5-0.3,0.7l0,0c-0.2,0.2-0.4,0.3-0.7,0.3l0,0
				C51.2,155.4,51,155.3,50.8,155.1z"/>
		</g>
	</g>
	<g>
		<g>
			<path class="st0" d="M144.9,45c-0.2-0.2-0.3-0.4-0.3-0.7l0,0c0-0.3,0.1-0.5,0.3-0.7l0,0c0.2-0.2,0.4-0.3,0.7-0.3l0,0
				c0.3,0,0.5,0.1,0.7,0.3l0,0c0.2,0.2,0.3,0.4,0.3,0.7l0,0c0,0.3-0.1,0.5-0.3,0.7l0,0c-0.2,0.2-0.4,0.3-0.7,0.3l0,0
				C145.4,45.3,145.1,45.2,144.9,45z"/>
		</g>
		<g>
			<path class="st0" d="M53.7,157.6c-0.2-0.2-0.3-0.4-0.3-0.7l0,0c0-0.3,0.1-0.5,0.3-0.7l0,0c0.2-0.2,0.4-0.3,0.7-0.3l0,0
				c0.3,0,0.5,0.1,0.7,0.3l0,0c0.2,0.2,0.3,0.4,0.3,0.7l0,0c0,0.3-0.1,0.5-0.3,0.7l0,0c-0.2,0.2-0.4,0.3-0.7,0.3l0,0
				C54.1,157.9,53.9,157.8,53.7,157.6z"/>
		</g>
	</g>
	<g>
		<g>
			<path class="st0" d="M141.9,42.7c-0.2-0.2-0.3-0.4-0.3-0.7l0,0c0-0.3,0.1-0.5,0.3-0.7l0,0c0.2-0.2,0.4-0.3,0.7-0.3l0,0
				c0.3,0,0.5,0.1,0.7,0.3l0,0c0.2,0.2,0.3,0.5,0.3,0.7l0,0c0,0.3-0.1,0.5-0.3,0.7l0,0c-0.2,0.2-0.4,0.3-0.7,0.3l0,0
				C142.3,43,142.1,42.9,141.9,42.7z"/>
		</g>
		<g>
			<path class="st0" d="M56.7,159.9c-0.2-0.2-0.3-0.5-0.3-0.7l0,0c0-0.3,0.1-0.5,0.3-0.7l0,0c0.2-0.2,0.4-0.3,0.7-0.3l0,0
				c0.3,0,0.5,0.1,0.7,0.3l0,0c0.2,0.2,0.3,0.5,0.3,0.7l0,0c0,0.3-0.1,0.5-0.3,0.7l0,0c-0.2,0.2-0.4,0.3-0.7,0.3l0,0
				C57.1,160.2,56.9,160.1,56.7,159.9z"/>
		</g>
	</g>
	<g>
		<g>
			<path class="st0" d="M138.8,40.5c-0.2-0.2-0.3-0.5-0.3-0.7l0,0c0-0.3,0.1-0.5,0.3-0.7l0,0c0.2-0.2,0.4-0.3,0.7-0.3l0,0
				c0.3,0,0.5,0.1,0.7,0.3l0,0c0.2,0.2,0.3,0.4,0.3,0.7l0,0c0,0.3-0.1,0.5-0.3,0.7l0,0c-0.2,0.2-0.4,0.3-0.7,0.3l0,0
				C139.2,40.8,139,40.7,138.8,40.5z"/>
		</g>
		<g>
			<path class="st0" d="M59.8,162c-0.2-0.2-0.3-0.4-0.3-0.7l0,0c0-0.3,0.1-0.5,0.3-0.7l0,0c0.2-0.2,0.5-0.3,0.7-0.3l0,0
				c0.3,0,0.5,0.1,0.7,0.3l0,0c0.2,0.2,0.3,0.4,0.3,0.7l0,0c0,0.3-0.1,0.5-0.3,0.7l0,0c-0.2,0.2-0.4,0.3-0.7,0.3l0,0
				C60.2,162.3,60,162.2,59.8,162z"/>
		</g>
	</g>
	<g>
		<g>
			<path class="st0" d="M135.5,38.6c-0.2-0.2-0.3-0.4-0.3-0.7l0,0c0-0.3,0.1-0.5,0.3-0.7l0,0c0.2-0.2,0.5-0.3,0.7-0.3l0,0
				c0.3,0,0.5,0.1,0.7,0.3l0,0c0.2,0.2,0.3,0.4,0.3,0.7l0,0c0,0.3-0.1,0.5-0.3,0.7l0,0c-0.2,0.2-0.5,0.3-0.7,0.3l0,0
				C136,38.9,135.7,38.8,135.5,38.6z"/>
		</g>
		<g>
			<path class="st0" d="M63,164c-0.2-0.2-0.3-0.4-0.3-0.7l0,0c0-0.3,0.1-0.5,0.3-0.7l0,0c0.2-0.2,0.4-0.3,0.7-0.3l0,0
				c0.3,0,0.5,0.1,0.7,0.3l0,0c0.2,0.2,0.3,0.4,0.3,0.7l0,0c0,0.3-0.1,0.5-0.3,0.7l0,0c-0.2,0.2-0.5,0.3-0.7,0.3l0,0
				C63.5,164.3,63.2,164.2,63,164z"/>
		</g>
	</g>
	<g>
		<g>
			<path class="st0" d="M132.2,36.8c-0.2-0.2-0.3-0.4-0.3-0.7l0,0c0-0.3,0.1-0.5,0.3-0.7l0,0c0.2-0.2,0.4-0.3,0.7-0.3l0,0
				c0.3,0,0.5,0.1,0.7,0.3l0,0c0.2,0.2,0.3,0.4,0.3,0.7l0,0c0,0.3-0.1,0.5-0.3,0.7l0,0c-0.2,0.2-0.4,0.3-0.7,0.3l0,0
				C132.6,37,132.4,36.9,132.2,36.8z"/>
		</g>
		<g>
			<path class="st0" d="M66.4,165.8c-0.2-0.2-0.3-0.5-0.3-0.7l0,0c0-0.3,0.1-0.5,0.3-0.7l0,0c0.2-0.2,0.4-0.3,0.7-0.3l0,0
				c0.3,0,0.5,0.1,0.7,0.3l0,0c0.2,0.2,0.3,0.5,0.3,0.7l0,0c0,0.3-0.1,0.5-0.3,0.7l0,0c-0.2,0.2-0.4,0.3-0.7,0.3l0,0
				C66.8,166.1,66.6,166,66.4,165.8z"/>
		</g>
	</g>
	<g>
		<g>
			<path class="st0" d="M128.8,35.1c-0.2-0.2-0.3-0.4-0.3-0.7l0,0c0-0.3,0.1-0.5,0.3-0.7l0,0c0.2-0.2,0.4-0.3,0.7-0.3l0,0
				c0.3,0,0.5,0.1,0.7,0.3l0,0c0.2,0.2,0.3,0.4,0.3,0.7l0,0c0,0.3-0.1,0.5-0.3,0.7l0,0c-0.2,0.2-0.5,0.3-0.7,0.3l0,0
				C129.2,35.4,129,35.3,128.8,35.1z"/>
		</g>
		<g>
			<path class="st0" d="M69.8,167.5c-0.2-0.2-0.3-0.4-0.3-0.7l0,0c0-0.3,0.1-0.5,0.3-0.7l0,0c0.2-0.2,0.5-0.3,0.7-0.3l0,0
				c0.3,0,0.5,0.1,0.7,0.3l0,0c0.2,0.2,0.3,0.4,0.3,0.7l0,0c0,0.3-0.1,0.5-0.3,0.7l0,0c-0.2,0.2-0.4,0.3-0.7,0.3l0,0
				C70.2,167.8,70,167.7,69.8,167.5z"/>
		</g>
	</g>
	<g>
		<g>
			<path class="st0" d="M125.3,33.7c-0.2-0.2-0.3-0.4-0.3-0.7l0,0c0-0.3,0.1-0.5,0.3-0.7l0,0c0.2-0.2,0.5-0.3,0.7-0.3l0,0
				c0.3,0,0.5,0.1,0.7,0.3l0,0c0.2,0.2,0.3,0.4,0.3,0.7l0,0c0,0.3-0.1,0.5-0.3,0.7l0,0c-0.2,0.2-0.4,0.3-0.7,0.3l0,0
				C125.7,33.9,125.5,33.8,125.3,33.7z"/>
		</g>
		<g>
			<path class="st0" d="M73.3,168.9c-0.2-0.2-0.3-0.4-0.3-0.7l0,0c0-0.3,0.1-0.5,0.3-0.7l0,0c0.2-0.2,0.4-0.3,0.7-0.3l0,0
				c0.3,0,0.5,0.1,0.7,0.3l0,0c0.2,0.2,0.3,0.4,0.3,0.7l0,0c0,0.3-0.1,0.5-0.3,0.7l0,0c-0.2,0.2-0.4,0.3-0.7,0.3l0,0
				C73.8,169.2,73.5,169.1,73.3,168.9z"/>
		</g>
	</g>
	<g>
		<g>
			<path class="st0" d="M121.7,32.4c-0.2-0.2-0.3-0.4-0.3-0.7l0,0c0-0.3,0.1-0.5,0.3-0.7l0,0c0.2-0.2,0.4-0.3,0.7-0.3l0,0
				c0.3,0,0.5,0.1,0.7,0.3l0,0c0.2,0.2,0.3,0.4,0.3,0.7l0,0c0,0.3-0.1,0.5-0.3,0.7l0,0c-0.2,0.2-0.4,0.3-0.7,0.3l0,0
				C122.1,32.7,121.9,32.6,121.7,32.4z"/>
		</g>
		<g>
			<path class="st0" d="M76.9,170.2c-0.2-0.2-0.3-0.4-0.3-0.7l0,0c0-0.3,0.1-0.5,0.3-0.7l0,0c0.2-0.2,0.4-0.3,0.7-0.3l0,0
				c0.3,0,0.5,0.1,0.7,0.3l0,0c0.2,0.2,0.3,0.4,0.3,0.7l0,0c0,0.3-0.1,0.5-0.3,0.7l0,0c-0.2,0.2-0.4,0.3-0.7,0.3l0,0
				C77.3,170.5,77.1,170.4,76.9,170.2z"/>
		</g>
	</g>
	<g>
		<g>
			<path class="st0" d="M118.1,31.3c-0.2-0.2-0.3-0.4-0.3-0.7l0,0c0-0.3,0.1-0.5,0.3-0.7l0,0c0.2-0.2,0.4-0.3,0.7-0.3l0,0
				c0.3,0,0.5,0.1,0.7,0.3l0,0c0.2,0.2,0.3,0.4,0.3,0.7l0,0c0,0.3-0.1,0.5-0.3,0.7l0,0c-0.2,0.2-0.4,0.3-0.7,0.3l0,0
				C118.5,31.6,118.2,31.5,118.1,31.3z"/>
		</g>
		<g>
			<path class="st0" d="M80.5,171.3c-0.2-0.2-0.3-0.4-0.3-0.7l0,0c0-0.3,0.1-0.5,0.3-0.7l0,0c0.2-0.2,0.4-0.3,0.7-0.3l0,0
				c0.3,0,0.5,0.1,0.7,0.3l0,0c0.2,0.2,0.3,0.4,0.3,0.7l0,0c0,0.3-0.1,0.5-0.3,0.7l0,0c-0.2,0.2-0.4,0.3-0.7,0.3l0,0
				C81,171.6,80.7,171.5,80.5,171.3z"/>
		</g>
	</g>
	<g>
		<g>
			<path class="st0" d="M114.4,30.4c-0.2-0.2-0.3-0.4-0.3-0.7l0,0c0-0.3,0.1-0.5,0.3-0.7l0,0c0.2-0.2,0.4-0.3,0.7-0.3l0,0
				c0.3,0,0.5,0.1,0.7,0.3l0,0c0.2,0.2,0.3,0.5,0.3,0.7l0,0c0,0.3-0.1,0.5-0.3,0.7l0,0c-0.2,0.2-0.4,0.3-0.7,0.3l0,0
				C114.8,30.7,114.5,30.6,114.4,30.4z"/>
		</g>
		<g>
			<path class="st0" d="M84.2,172.2c-0.2-0.2-0.3-0.5-0.3-0.7l0,0c0-0.3,0.1-0.5,0.3-0.7l0,0c0.2-0.2,0.4-0.3,0.7-0.3l0,0
				c0.3,0,0.5,0.1,0.7,0.3l0,0c0.2,0.2,0.3,0.4,0.3,0.7l0,0c0,0.3-0.1,0.5-0.3,0.7l0,0c-0.2,0.2-0.4,0.3-0.7,0.3l0,0
				C84.7,172.5,84.4,172.3,84.2,172.2z"/>
		</g>
	</g>
	<g>
		<g>
			<path class="st0" d="M110.6,29.7c-0.2-0.2-0.3-0.4-0.3-0.7l0,0c0-0.3,0.1-0.5,0.3-0.7l0,0c0.2-0.2,0.5-0.3,0.7-0.3l0,0
				c0.3,0,0.5,0.1,0.7,0.3l0,0c0.2,0.2,0.3,0.4,0.3,0.7l0,0c0,0.3-0.1,0.5-0.3,0.7l0,0c-0.2,0.2-0.4,0.3-0.7,0.3l0,0
				C111.1,30,110.8,29.9,110.6,29.7z"/>
		</g>
		<g>
			<path class="st0" d="M87.9,172.8c-0.2-0.2-0.3-0.4-0.3-0.7l0,0c0-0.3,0.1-0.5,0.3-0.7l0,0c0.2-0.2,0.5-0.3,0.7-0.3l0,0
				c0.3,0,0.5,0.1,0.7,0.3l0,0c0.2,0.2,0.3,0.4,0.3,0.7l0,0c0,0.3-0.1,0.5-0.3,0.7l0,0c-0.2,0.2-0.4,0.3-0.7,0.3l0,0
				C88.4,173.1,88.1,173,87.9,172.8z"/>
		</g>
	</g>
	<g>
		<g>
			<path class="st0" d="M106.9,29.2c-0.2-0.2-0.3-0.4-0.3-0.7l0,0c0-0.3,0.1-0.5,0.3-0.7l0,0c0.2-0.2,0.4-0.3,0.7-0.3l0,0
				c0.3,0,0.5,0.1,0.7,0.3l0,0c0.2,0.2,0.3,0.4,0.3,0.7l0,0c0,0.3-0.1,0.5-0.3,0.7l0,0c-0.2,0.2-0.5,0.3-0.7,0.3l0,0
				C107.3,29.5,107.1,29.4,106.9,29.2z"/>
		</g>
		<g>
			<path class="st0" d="M91.7,173.3c-0.2-0.2-0.3-0.5-0.3-0.7l0,0c0-0.3,0.1-0.5,0.3-0.7l0,0c0.2-0.2,0.4-0.3,0.7-0.3l0,0
				c0.3,0,0.5,0.1,0.7,0.3l0,0c0.2,0.2,0.3,0.5,0.3,0.7l0,0c0,0.3-0.1,0.5-0.3,0.7l0,0c-0.2,0.2-0.5,0.3-0.7,0.3l0,0
				C92.2,173.6,91.9,173.5,91.7,173.3z"/>
		</g>
	</g>
	<g>
		<g>
			<path class="st0" d="M103.1,28.9c-0.2-0.2-0.3-0.4-0.3-0.7l0,0c0-0.3,0.1-0.5,0.3-0.7l0,0c0.2-0.2,0.4-0.3,0.7-0.3l0,0
				c0.3,0,0.5,0.1,0.7,0.3l0,0c0.2,0.2,0.3,0.4,0.3,0.7l0,0c0,0.3-0.1,0.5-0.3,0.7l0,0c-0.2,0.2-0.4,0.3-0.7,0.3l0,0
				C103.5,29.2,103.3,29.1,103.1,28.9z"/>
		</g>
		<g>
			<path class="st0" d="M95.5,173.6c-0.2-0.2-0.3-0.4-0.3-0.7l0,0c0-0.3,0.1-0.5,0.3-0.7l0,0c0.2-0.2,0.4-0.3,0.7-0.3l0,0
				c0.3,0,0.5,0.1,0.7,0.3l0,0c0.2,0.2,0.3,0.4,0.3,0.7l0,0c0,0.3-0.1,0.5-0.3,0.7l0,0c-0.2,0.2-0.4,0.3-0.7,0.3l0,0
				C95.9,173.9,95.7,173.8,95.5,173.6z"/>
		</g>
	</g>
	<g>
		<g>
			<path class="st0" d="M99.3,28.8c-0.2-0.2-0.3-0.4-0.3-0.7l0,0c0-0.3,0.1-0.5,0.3-0.7l0,0c0.2-0.2,0.4-0.3,0.7-0.3l0,0
				c0.3,0,0.5,0.1,0.7,0.3l0,0c0.2,0.2,0.3,0.4,0.3,0.7l0,0c0,0.3-0.1,0.5-0.3,0.7l0,0c-0.2,0.2-0.5,0.3-0.7,0.3l0,0
				C99.7,29.1,99.5,29,99.3,28.8z"/>
		</g>
		<g>
			<path class="st0" d="M99.3,173.7c-0.2-0.2-0.3-0.4-0.3-0.7l0,0c0-0.3,0.1-0.5,0.3-0.7l0,0c0.2-0.2,0.4-0.3,0.7-0.3l0,0
				c0.3,0,0.5,0.1,0.7,0.3l0,0c0.2,0.2,0.3,0.4,0.3,0.7l0,0c0,0.3-0.1,0.5-0.3,0.7l0,0c-0.2,0.2-0.5,0.3-0.7,0.3l0,0
				C99.7,174,99.5,173.9,99.3,173.7z"/>
		</g>
	</g>
</g>
<g>
	<polygon class="st2" points="155.2,146.8 33.5,30.8 30.7,33.7 146.7,155.3 149.5,158.1 158,149.6 	"/>
</g>
<g>
	
		<rect x="22.8" y="91.3" transform="matrix(0.7071 -0.7071 0.7071 0.7071 -38.6878 101.2108)" class="st3" width="160" height="12"/>
</g>
<g>
	<path class="st4" d="M158,33.7l2.8-2.8c1.6-1.6,4.1-1.6,5.7,0l2.8,2.8c1.6,1.6,1.6,4.1,0,5.7l-2.8,2.8"/>
	<path class="st0" d="M166.5,43.2c-0.3,0-0.5-0.1-0.7-0.3c-0.4-0.4-0.4-1,0-1.4l2.8-2.8c1.2-1.2,1.2-3.1,0-4.2l-2.8-2.8
		c-1.2-1.2-3.1-1.2-4.2,0l-2.8,2.8c-0.4,0.4-1,0.4-1.4,0s-0.4-1,0-1.4l2.8-2.8c1.9-1.9,5.1-1.9,7.1,0L170,33c1.9,2,1.9,5.1,0,7.1
		l-2.8,2.8C167,43.1,166.7,43.2,166.5,43.2z"/>
</g>
<g>
	<path class="st0" d="M50.5,159.1c-0.3,0-0.5-0.1-0.7-0.3l-8.5-8.5c-0.2-0.2-0.3-0.4-0.3-0.7s0.1-0.5,0.3-0.7L154.4,35.8
		c0.4-0.4,1-0.4,1.4,0l8.5,8.5c0.2,0.2,0.3,0.4,0.3,0.7s-0.1,0.5-0.3,0.7L51.2,158.8C51,159,50.8,159.1,50.5,159.1z M43.4,149.6
		l7.1,7.1L162.2,45l-7.1-7.1L43.4,149.6z"/>
</g>
<g>
	<polyline class="st4" points="166.5,42.2 163.6,45 155.2,36.5 158,33.7 	"/>
	<path class="st0" d="M163.6,46c-0.3,0-0.5-0.1-0.7-0.3l-8.5-8.5c-0.4-0.4-0.4-1,0-1.4l2.8-2.8c0.4-0.4,1-0.4,1.4,0
		c0.4,0.4,0.4,1,0,1.4l-2.1,2.1l7.1,7.1l2.1-2.1c0.4-0.4,1-0.4,1.4,0c0.4,0.4,0.4,1,0,1.4l-2.8,2.8C164.2,45.9,163.9,46,163.6,46z"
		/>
</g>
<g>
	<polygon class="st4" points="32.1,168 50.5,158.1 42,149.6 	"/>
	<path class="st0" d="M32.1,169c-0.3,0-0.5-0.1-0.7-0.3c-0.3-0.3-0.4-0.8-0.2-1.2l9.9-18.4c0.1-0.3,0.4-0.5,0.7-0.5s0.6,0.1,0.9,0.3
		l8.5,8.5c0.2,0.2,0.3,0.5,0.3,0.9c0,0.3-0.2,0.6-0.5,0.7l-18.4,9.9C32.4,169,32.3,169,32.1,169z M42.3,151.3l-7.7,14.3l14.3-7.7
		L42.3,151.3z"/>
</g>
<g>
	<path class="st0" d="M161.2,41.8c-0.4-0.4-1-0.4-1.4,0L47.3,154.2c-0.4,0.4-0.4,1,0,1.4c0.2,0.2,0.5,0.3,0.7,0.3s0.5-0.1,0.7-0.3
		L161.2,43.2C161.6,42.8,161.6,42.2,161.2,41.8z"/>
	<path class="st0" d="M158.3,39c-0.4-0.4-1-0.4-1.4,0L44.5,151.4c-0.4,0.4-0.4,1,0,1.4c0.2,0.2,0.5,0.3,0.7,0.3s0.5-0.1,0.7-0.3
		L158.3,40.4C158.7,40,158.7,39.4,158.3,39z"/>
</g>
<g>
	<g>
		<g>
			<path class="st0" d="M149.5,159.1c-0.3,0-0.5-0.1-0.7-0.3L146,156L30,34.4c-0.4-0.4-0.4-1,0-1.4l2.8-2.8c0.4-0.4,1-0.4,1.4,0
				l121.6,116c0,0,0,0,0,0l2.8,2.8c0.4,0.4,0.4,1,0,1.4l-8.5,8.5C150,159,149.8,159.1,149.5,159.1z M32.1,33.7l115.3,120.9l2.1,2.1
				l7.1-7.1l-2.1-2.1L33.5,32.2L32.1,33.7z"/>
		</g>
		<g>
			<line class="st4" x1="117.3" y1="111.1" x2="111" y2="117.5"/>
			<path class="st0" d="M111,118.5c-0.3,0-0.5-0.1-0.7-0.3c-0.4-0.4-0.4-1,0-1.4l6.4-6.4c0.4-0.4,1-0.4,1.4,0s0.4,1,0,1.4l-6.4,6.4
				C111.5,118.4,111.2,118.5,111,118.5z"/>
		</g>
		<g>
			<g>
				<path class="st4" d="M165.4,160.2c-1-2.7-2.2-5.4-3.1-6.4c-2.3-2.3-6.1-2.3-8.5,0c-2.3,2.3-2.3,6.1,0,8.5c1,1,3.6,2.1,6.4,3.1"
					/>
				<path class="st0" d="M160.1,166.5c-0.1,0-0.2,0-0.3-0.1c-3.6-1.3-5.8-2.4-6.7-3.4c-2.7-2.7-2.7-7.2,0-9.9c2.7-2.7,7.2-2.7,9.9,0
					c1,1,2.1,3.2,3.4,6.7c0.2,0.5-0.1,1.1-0.6,1.3c-0.5,0.2-1.1-0.1-1.3-0.6c-1.6-4.3-2.5-5.6-2.9-6c-2-2-5.1-1.9-7.1,0
					c-1.9,2-1.9,5.1,0,7.1c0.4,0.4,1.7,1.3,6,2.9c0.5,0.2,0.8,0.8,0.6,1.3C160.9,166.3,160.5,166.5,160.1,166.5z"/>
			</g>
			<g>
				<path class="st4" d="M165.4,160.2c1.4,3.8,2.5,7.8,2.5,7.8s-4-1.1-7.8-2.5"/>
				<path class="st0" d="M167.9,169c-0.1,0-0.2,0-0.3,0c0,0-4.1-1.1-7.9-2.5c-0.5-0.2-0.8-0.8-0.6-1.3c0.2-0.5,0.8-0.8,1.3-0.6
					c2.2,0.8,4.5,1.5,6,2c-0.5-1.5-1.2-3.8-2-6c-0.2-0.5,0.1-1.1,0.6-1.3c0.5-0.2,1.1,0.1,1.3,0.6c1.4,3.8,2.5,7.8,2.5,7.9
					c0.1,0.3,0,0.7-0.3,1C168.4,168.9,168.1,169,167.9,169z"/>
			</g>
		</g>
	</g>
</g>
<g>
	<g>
		<path class="st4" d="M152,136.1c0,2.2-1.8,4-4,4H52c-2.2,0-4-1.8-4-4v-72c0-2.2,1.8-4,4-4h96c2.2,0,4,1.8,4,4V136.1z"/>
	</g>
	<g>
		<g>
			<path class="st2" d="M148,60.1H52c-2.2,0-4,1.8-4,4v64h104v-64C152,61.9,150.2,60.1,148,60.1z"/>
		</g>
	</g>
	<g>
		<rect x="56" y="68.1" class="st4" width="92" height="56"/>
	</g>
</g>
<g>
	<rect x="52" y="68.1" class="st5" width="4" height="56"/>
</g>
<g>
	<rect x="56" y="64.1" class="st5" width="92" height="4"/>
</g>
<g>
	<rect x="52" y="64.1" class="st6" width="4" height="4"/>
</g>
<g>
	<rect x="124" y="72.1" class="st6" width="16" height="4"/>
</g>
<g>
	<rect x="60" y="104.1" class="st6" width="8" height="4"/>
</g>
<g>
	<rect x="60" y="72.1" class="st7" width="8" height="4"/>
</g>
<g>
	<rect x="124" y="112.1" class="st1" width="16" height="4"/>
</g>
<g>
	<rect x="124" y="96.1" class="st2" width="16" height="12"/>
</g>
<g>
	<rect x="84" y="96.1" class="st1" width="16" height="16"/>
</g>
<g>
	<rect x="60" y="72.1" class="st1" width="8" height="4"/>
	<path class="st0" d="M68,77.1h-8c-0.6,0-1-0.4-1-1v-4c0-0.6,0.4-1,1-1h8c0.6,0,1,0.4,1,1v4C69,76.7,68.6,77.1,68,77.1z M61,75.1h6
		v-2h-6V75.1z"/>
</g>
<g>
	<path class="st0" d="M68,101.1h-8c-0.6,0-1-0.4-1-1v-20c0-0.6,0.4-1,1-1h8c0.6,0,1,0.4,1,1v20C69,100.7,68.6,101.1,68,101.1z
		 M61,99.1h6v-18h-6V99.1z"/>
</g>
<g>
	<path class="st0" d="M64,101.1c-0.6,0-1-0.4-1-1v-20c0-0.6,0.4-1,1-1s1,0.4,1,1v20C65,100.7,64.6,101.1,64,101.1z"/>
</g>
<g>
	<g>
		<g>
			<path class="st0" d="M68,97.1h-8c-0.6,0-1-0.4-1-1s0.4-1,1-1h8c0.6,0,1,0.4,1,1S68.6,97.1,68,97.1z"/>
		</g>
	</g>
	<g>
		<g>
			<path class="st0" d="M68,93.1h-8c-0.6,0-1-0.4-1-1s0.4-1,1-1h8c0.6,0,1,0.4,1,1S68.6,93.1,68,93.1z"/>
		</g>
	</g>
	<g>
		<g>
			<path class="st0" d="M68,89.1h-8c-0.6,0-1-0.4-1-1s0.4-1,1-1h8c0.6,0,1,0.4,1,1S68.6,89.1,68,89.1z"/>
		</g>
	</g>
	<g>
		<g>
			<path class="st0" d="M68,85.1h-8c-0.6,0-1-0.4-1-1s0.4-1,1-1h8c0.6,0,1,0.4,1,1S68.6,85.1,68,85.1z"/>
		</g>
	</g>
</g>
<g>
	<path class="st0" d="M84,105.1c-5,0-9-4-9-9s4-9,9-9s9,4,9,9S89,105.1,84,105.1z M84,89.1c-3.9,0-7,3.1-7,7s3.1,7,7,7s7-3.1,7-7
		S87.9,89.1,84,89.1z"/>
</g>
<g>
	<path class="st0" d="M100,113.1H84c-0.6,0-1-0.4-1-1v-16c0-0.6,0.4-1,1-1h16c0.6,0,1,0.4,1,1v16C101,112.7,100.6,113.1,100,113.1z
		 M85,111.1h14v-14H85V111.1z"/>
</g>
<g>
	<path class="st0" d="M108,89.1H96c-0.3,0-0.7-0.2-0.9-0.5c-0.2-0.3-0.2-0.7,0-1l6-12c0.3-0.7,1.4-0.7,1.8,0l6,12
		c0.2,0.3,0.1,0.7,0,1C108.7,89,108.3,89.1,108,89.1z M97.6,87.1h8.8l-4.4-8.8L97.6,87.1z"/>
</g>
<g>
	<path class="st0" d="M68,109.1h-8c-0.6,0-1-0.4-1-1v-4c0-0.6,0.4-1,1-1h8c0.6,0,1,0.4,1,1v4C69,108.7,68.6,109.1,68,109.1z
		 M61,107.1h6v-2h-6V107.1z"/>
</g>
<g>
	<path class="st0" d="M68,117.1h-8c-0.6,0-1-0.4-1-1v-4c0-0.6,0.4-1,1-1h8c0.6,0,1,0.4,1,1v4C69,116.7,68.6,117.1,68,117.1z
		 M61,115.1h6v-2h-6V115.1z"/>
</g>
<g>
	<path class="st0" d="M112,105.1c-2.8,0-5-2.2-5-5c0-2.8,2.2-5,5-5s5,2.2,5,5C117,102.9,114.8,105.1,112,105.1z M112,97.1
		c-1.7,0-3,1.3-3,3c0,1.7,1.3,3,3,3s3-1.3,3-3C115,98.5,113.7,97.1,112,97.1z"/>
</g>
<g>
	<path class="st0" d="M140,77.1h-16c-0.6,0-1-0.4-1-1v-4c0-0.6,0.4-1,1-1h16c0.6,0,1,0.4,1,1v4C141,76.7,140.6,77.1,140,77.1z
		 M125,75.1h14v-2h-14V75.1z"/>
</g>
<g>
	<path class="st0" d="M140,93.1h-16c-0.6,0-1-0.4-1-1v-12c0-0.6,0.4-1,1-1h16c0.6,0,1,0.4,1,1v12C141,92.7,140.6,93.1,140,93.1z
		 M125,91.1h14v-10h-14V91.1z"/>
</g>
<g>
	<path class="st0" d="M140,109.1h-16c-0.6,0-1-0.4-1-1v-12c0-0.6,0.4-1,1-1h16c0.6,0,1,0.4,1,1v12C141,108.7,140.6,109.1,140,109.1z
		 M125,107.1h14v-10h-14V107.1z"/>
</g>
<g>
	<path class="st0" d="M140,117.1h-16c-0.6,0-1-0.4-1-1v-4c0-0.6,0.4-1,1-1h16c0.6,0,1,0.4,1,1v4C141,116.7,140.6,117.1,140,117.1z
		 M125,115.1h14v-2h-14V115.1z"/>
</g>
<g>
	<path class="st0" d="M136,105.1h-8c-0.6,0-1-0.4-1-1v-4c0-0.6,0.4-1,1-1h8c0.6,0,1,0.4,1,1v4C137,104.7,136.6,105.1,136,105.1z
		 M129,103.1h6v-2h-6V103.1z"/>
</g>
<g>
	<path class="st0" d="M136,85.1h-8c-0.6,0-1-0.4-1-1s0.4-1,1-1h8c0.6,0,1,0.4,1,1S136.6,85.1,136,85.1z"/>
</g>
<g>
	<g>
		<path class="st0" d="M128,89.1c-0.1,0-0.3,0-0.4-0.1c-0.1-0.1-0.2-0.1-0.3-0.2c-0.2-0.2-0.3-0.4-0.3-0.7c0-0.3,0.1-0.5,0.3-0.7
			c0.1-0.1,0.2-0.2,0.3-0.2c0.4-0.1,0.8-0.1,1.1,0.2c0.2,0.2,0.3,0.4,0.3,0.7c0,0.1,0,0.1,0,0.2c0,0.1,0,0.1-0.1,0.2
			c0,0.1,0,0.1-0.1,0.2c0,0-0.1,0.1-0.1,0.1C128.5,89,128.3,89.1,128,89.1z"/>
	</g>
	<g>
		<path class="st0" d="M131,88.1c0-0.6,0.5-1,1-1l0,0c0.5,0,1,0.4,1,1l0,0c0,0.6-0.5,1-1,1l0,0C131.5,89.1,131,88.7,131,88.1z"/>
	</g>
	<g>
		<path class="st0" d="M136,89.1c-0.3,0-0.5-0.1-0.7-0.3c-0.2-0.2-0.3-0.4-0.3-0.7c0-0.3,0.1-0.5,0.3-0.7c0.4-0.4,1-0.4,1.4,0
			c0.2,0.2,0.3,0.4,0.3,0.7c0,0.3-0.1,0.5-0.3,0.7C136.5,89,136.3,89.1,136,89.1z"/>
	</g>
</g>
<g>
	<path class="st0" d="M56,125.1c-0.6,0-1-0.4-1-1v-60c0-0.6,0.4-1,1-1s1,0.4,1,1v60C57,124.7,56.6,125.1,56,125.1z"/>
</g>
<g>
	<path class="st0" d="M52,125.1c-0.6,0-1-0.4-1-1v-60c0-0.6,0.4-1,1-1s1,0.4,1,1v60C53,124.7,52.6,125.1,52,125.1z"/>
</g>
<g>
	<path class="st0" d="M148,69.1H52c-0.6,0-1-0.4-1-1s0.4-1,1-1h96c0.6,0,1,0.4,1,1S148.6,69.1,148,69.1z"/>
</g>
<g>
	<path class="st0" d="M148,65.1H52c-0.6,0-1-0.4-1-1s0.4-1,1-1h96c0.6,0,1,0.4,1,1S148.6,65.1,148,65.1z"/>
</g>
<g>
	<path class="st0" d="M148,125.1c-0.6,0-1-0.4-1-1v-60c0-0.6,0.4-1,1-1s1,0.4,1,1v60C149,124.7,148.6,125.1,148,125.1z"/>
</g>
<g>
	<path class="st0" d="M148,125.1H52c-0.6,0-1-0.4-1-1s0.4-1,1-1h96c0.6,0,1,0.4,1,1S148.6,125.1,148,125.1z"/>
</g>
<g>
	<path class="st0" d="M152,129.1c-0.6,0-1-0.4-1-1v-64c0-0.6,0.4-1,1-1s1,0.4,1,1v64C153,128.7,152.6,129.1,152,129.1z"/>
</g>
<g>
	<path class="st0" d="M48,129.1c-0.6,0-1-0.4-1-1v-64c0-0.6,0.4-1,1-1s1,0.4,1,1v64C49,128.7,48.6,129.1,48,129.1z"/>
</g>
<g>
	<path class="st0" d="M148,61.1H52c-0.6,0-1-0.4-1-1s0.4-1,1-1h96c0.6,0,1,0.4,1,1S148.6,61.1,148,61.1z"/>
</g>
<g>
	<path class="st0" d="M48,65.1c-0.6,0-1-0.4-1-1c0-2.8,2.2-5,5-5c0.6,0,1,0.4,1,1s-0.4,1-1,1c-1.7,0-3,1.3-3,3
		C49,64.7,48.6,65.1,48,65.1z"/>
</g>
<g>
	<path class="st0" d="M152,65.1c-0.6,0-1-0.4-1-1c0-1.7-1.3-3-3-3c-0.6,0-1-0.4-1-1s0.4-1,1-1c2.8,0,5,2.2,5,5
		C153,64.7,152.6,65.1,152,65.1z"/>
</g>
<g>
	<path class="st0" d="M148,141.1c-0.6,0-1-0.4-1-1s0.4-1,1-1c1.7,0,3-1.3,3-3c0-0.6,0.4-1,1-1s1,0.4,1,1
		C153,138.9,150.8,141.1,148,141.1z"/>
</g>
<g>
	<path class="st0" d="M52,141.1c-2.8,0-5-2.2-5-5c0-0.6,0.4-1,1-1s1,0.4,1,1c0,1.7,1.3,3,3,3c0.6,0,1,0.4,1,1S52.6,141.1,52,141.1z"
		/>
</g>
<g>
	<path class="st0" d="M152,129.1H48c-0.6,0-1-0.4-1-1s0.4-1,1-1h104c0.6,0,1,0.4,1,1S152.6,129.1,152,129.1z"/>
</g>
<g>
	<path class="st0" d="M152,137.1c-0.6,0-1-0.4-1-1v-8c0-0.6,0.4-1,1-1s1,0.4,1,1v8C153,136.7,152.6,137.1,152,137.1z"/>
</g>
<g>
	<path class="st0" d="M148,141.1H52c-0.6,0-1-0.4-1-1s0.4-1,1-1h96c0.6,0,1,0.4,1,1S148.6,141.1,148,141.1z"/>
</g>
<g>
	<path class="st0" d="M48,137.1c-0.6,0-1-0.4-1-1v-8c0-0.6,0.4-1,1-1s1,0.4,1,1v8C49,136.7,48.6,137.1,48,137.1z"/>
</g>
<g>
	<path class="st0" d="M100,137.1c-1.7,0-3-1.3-3-3s1.3-3,3-3s3,1.3,3,3S101.7,137.1,100,137.1z M100,133.1c-0.6,0-1,0.4-1,1
		s0.4,1,1,1s1-0.4,1-1S100.6,133.1,100,133.1z"/>
</g>
<g>
	<path class="st0" d="M88,149.1c-0.6,0-1-0.4-1-1v-8c0-0.6,0.4-1,1-1s1,0.4,1,1v8C89,148.7,88.6,149.1,88,149.1z"/>
</g>
<g>
	<path class="st0" d="M112,149.1c-0.6,0-1-0.4-1-1v-8c0-0.6,0.4-1,1-1s1,0.4,1,1v8C113,148.7,112.6,149.1,112,149.1z"/>
</g>
<g>
	<path class="st0" d="M120,153.1H80c-0.6,0-1-0.4-1-1v-4c0-0.6,0.4-1,1-1h40c0.6,0,1,0.4,1,1v4C121,152.7,120.6,153.1,120,153.1z
		 M81,151.1h38v-2H81V151.1z"/>
</g>
<g>
	<circle class="st4" cx="182" cy="100.1" r="2"/>
	<path class="st0" d="M182,103.1c-1.7,0-3-1.3-3-3c0-1.7,1.3-3,3-3s3,1.3,3,3C185,101.8,183.7,103.1,182,103.1z M182,99.1
		c-0.6,0-1,0.4-1,1c0,0.6,0.4,1,1,1s1-0.4,1-1C183,99.6,182.6,99.1,182,99.1z"/>
</g>
</svg>
