<svg id="member-position" fill="currentColor" xmlns="http://www.w3.org/2000/svg" viewBox="0 0 25 32" xml:space="preserve">
	<path d="M20.65 18l-8.26 10.62L4.17 18a9.77 9.77 0 0 1-2.11-6c0-5.52 4.62-10 10.33-10 5.7 0 10.32 4.48 10.32 10 0 2.26-.81 4.32-2.11 6zM0 12c0 2.19.62 4.23 1.67 6h.02L12.4 32l10.7-14a11.61 11.61 0 0 0 1.67-6c0-6.63-5.54-12-12.38-12C5.55 0 0 5.37 0 12z"/>
	<path d="M8.06 12c0-2.21 1.85-4 4.13-4a4.07 4.07 0 0 1 4.13 4c0 2.21-1.85 4-4.13 4a4.07 4.07 0 0 1-4.13-4zM6 12c0 3.31 2.77 6 6.19 6a6.1 6.1 0 0 0 6.2-6c0-3.31-2.78-6-6.2-6A6.1 6.1 0 0 0 6 12z"/>
</svg>
