<svg id="member-other" fill="currentColor" xmlns="http://www.w3.org/2000/svg" viewBox="0 0 48 48" xml:space="preserve">
	<path fill-opacity="0.8" d="M45.111 14.974l-.15.06-8-1-2.64-1.59c-1.34-.8-3.07-.46-4.01.79l-1.75 2.88c-1.81.76-2.85 1.97-2.6 3.92.14 1.12.89 3.18 1.42 4.56.34.87 1.14 1.47 2.06 1.55 1.6.14 4.11.41 5.52.83 2.19.66 2.19 3.89 1.9 5.06-.29 1.17-1.75 5.35-.2 6.9s2.08 2.73 2.08 2.73a22.934 22.934 0 0 1-16.78 5.28c-3.27-.28-6.35-1.25-9.08-2.76l.08-.15-2-6 4-2 2.79-6.43c.62-1.24-.2-2.7-1.57-2.83l-7.14-.64c-.7-.07-1.37-.35-1.9-.8l-5.87-5.04c.18-1.12.44-2.2.78-3.26h3.53l1.42 2.38c.33.56.93.87 1.54.87.34 0 .68-.09.99-.3.79-.52 1.03-1.57.55-2.39-.53-.9-1.08-1.92-.99-2.1l.98-1.82a3.145 3.145 0 0 1 2.76-1.64c1.73 0 3.13-1.4 3.13-3.13v-3.87l-1.81-1.81c2.97-1.4 6.3-2.19 9.81-2.19 1.66 0 3.29.18 4.85.52-.34 1.43-.71 5.32 5.15 5.48.56.02 3 2 3 2l2.69-1.79c2.32 2.15 4.19 4.78 5.46 7.73z"/>
	<path d="M46.029 14.579a23.667 23.667 0 0 0-5.672-8.042 11.015 11.015 0 0 0-.524-.491 24.095 24.095 0 0 0-5.725-3.755A23.937 23.937 0 0 0 29.281.625c-.1-.021-.199-.042-.299-.056a23.86 23.86 0 0 0-5.021-.534c-3.575 0-7.019.769-10.237 2.286a24.18 24.18 0 0 0-8.7 6.978 23.707 23.707 0 0 0-3.925 7.431 23.014 23.014 0 0 0-.808 3.367 1.838 1.838 0 0 0-.028.14 24.02 24.02 0 0 0-.303 3.799c0 .711.028 1.333.083 1.874a23.456 23.456 0 0 0 2.943 9.783 23.956 23.956 0 0 0 6.234 7.278 22.31 22.31 0 0 0 3.175 2.09 23.624 23.624 0 0 0 9.474 2.881c.695.063 1.379.094 2.091.094 5.631 0 11.107-1.99 15.425-5.605 4.282-3.609 7.184-8.602 8.168-14.045.271-1.406.407-2.869.407-4.349a23.862 23.862 0 0 0-1.931-9.458zm-8.02-7.445l-.995.664c-2.216-1.734-2.771-1.754-3.026-1.763-1.875-.051-3.156-.508-3.809-1.357-.443-.577-.55-1.281-.531-1.894 1.252.338 2.463.775 3.607 1.316a22.145 22.145 0 0 1 4.754 3.034zM6.601 10.528a22.174 22.174 0 0 1 7.357-6.084l1.003 1.004v3.456c0 1.174-.955 2.13-2.13 2.13a4.141 4.141 0 0 0-3.64 2.166l-.995 1.848c-.267.535-.156 1.052 1.023 3.052a.785.785 0 0 1-.248 1.056c-.346.237-.89.121-1.111-.254l-1.42-2.38a.997.997 0 0 0-.858-.488H3.483a21.677 21.677 0 0 1 3.118-5.506zM4.734 34.716a21.5 21.5 0 0 1-2.698-8.982 16.79 16.79 0 0 1-.075-1.7c0-.587.025-1.176.072-1.763l4.461 3.826a4.516 4.516 0 0 0 2.458 1.033l7.134.64a.95.95 0 0 1 .754.492c.155.28.161.606-.006.944l-2.646 6.096-3.675 1.837a1 1 0 0 0-.501 1.211l1.196 3.588c-.252-.18-.511-.352-.754-.543a21.992 21.992 0 0 1-5.72-6.679zm17.312 11.232a21.645 21.645 0 0 1-8.187-2.382l-1.675-5.025 3.225-1.612a.997.997 0 0 0 .47-.497l2.768-6.381a2.957 2.957 0 0 0-.057-2.759 2.967 2.967 0 0 0-2.319-1.514l-7.129-.639c-.5-.05-.98-.251-1.349-.563l-5.426-4.66c.118-.635.267-1.261.443-1.882h2.205l1.126 1.888a2.793 2.793 0 0 0 3.941.898 2.78 2.78 0 0 0 .861-3.733c-.465-.789-.686-1.229-.788-1.458l.795-1.477a2.142 2.142 0 0 1 1.882-1.118 4.135 4.135 0 0 0 4.13-4.13v-3.87a.997.997 0 0 0-.293-.707l-.766-.766a21.838 21.838 0 0 1 11.773-1.205c-.091 1.042.031 2.383.919 3.539 1.022 1.333 2.786 2.051 5.234 2.135.401.175 1.59 1.039 2.503 1.78a1.001 1.001 0 0 0 1.184.057l1.999-1.332a21.676 21.676 0 0 1 3.923 5.302l-6.142-.768-2.461-1.482c-1.782-1.065-4.071-.616-5.377 1.129l-1.587 2.612c-2.735 1.277-3.096 3.32-2.901 4.831.117.943.602 2.512 1.48 4.8a3.466 3.466 0 0 0 2.905 2.182c2.431.213 4.32.495 5.318.792 1.422.429 1.447 2.937 1.218 3.862-.034.137-.085.318-.146.533-.547 1.938-1.563 5.543.209 7.315.71.71 1.182 1.33 1.477 1.768a22.047 22.047 0 0 1-13.47 4.625 21.73 21.73 0 0 1-1.915-.088zm23.541-17.931c-.835 4.617-3.183 8.86-6.628 12.09a14.105 14.105 0 0 0-1.591-1.88c-.943-.943-.006-4.266.302-5.358.067-.239.124-.441.162-.594.396-1.598.296-5.391-2.586-6.259-1.442-.43-3.905-.709-5.719-.868a1.45 1.45 0 0 1-1.213-.913c-1.006-2.616-1.295-3.796-1.361-4.328-.123-.954.019-2.042 1.995-2.871.194-.082.358-.222.468-.402l1.695-2.799a2.05 2.05 0 0 1 2.694-.534l2.64 1.59a.992.992 0 0 0 .392.136l7.579.947a21.895 21.895 0 0 1 1.545 8.06c0 1.354-.125 2.69-.374 3.983z"/>
</svg>
