<svg id="member-visitors" fill="currentColor" xmlns="http://www.w3.org/2000/svg" viewBox="0 0 48 48" xml:space="preserve">
	<path fill-opacity="0.8" d="M33 15c0 .51-.04 1.02-.13 1.51C21.74 16.47 21 12.02 21 12.02s-1.9 4.4-5.88 4.49c-.08-.49-.12-1-.12-1.51a9 9 0 0 1 18 0z"/>
	<path d="M14.135 16.679A9.992 9.992 0 0 0 24 25c4.893 0 9.037-3.5 9.854-8.31A9.411 9.411 0 0 0 34 15c0-5.514-4.486-10-10-10S14 9.486 14 15c0 .568.045 1.13.133 1.671l.002.008zM24 23a7.986 7.986 0 0 1-7.644-5.646c2.224-.486 3.751-2.078 4.631-3.331 1.26 1.446 4.124 3.231 10.609 3.461A7.967 7.967 0 0 1 24 23zm0-16c4.411 0 8 3.589 8 8 0 .166-.011.326-.02.486-9.07-.247-9.991-3.623-9.993-3.63a.998.998 0 0 0-.863-.827 1.007 1.007 0 0 0-1.04.592c-.015.034-1.397 3.1-4.053 3.758-.007-.128-.031-.25-.031-.379 0-4.411 3.589-8 8-8zM44.42 26h-8.18a3.553 3.553 0 0 0-2.894 1.488 5.235 5.235 0 0 0-2.596-.708h-13.5c-.922 0-1.806.258-2.596.708A3.553 3.553 0 0 0 11.76 26H3.58A3.584 3.584 0 0 0 0 29.58V37a1 1 0 0 0 1 1h11v3a1 1 0 0 0 1 1h22a1 1 0 0 0 1-1v-3h11a1 1 0 0 0 1-1v-7.42A3.584 3.584 0 0 0 44.42 26zm-10.685 2.995l-.332.336.323-.336h.009zm-7.952-.215L24 32.941l-1.783-4.162h3.566zm-11.509.215l.323.337-.333-.336.01-.001zM2 36v-6.42c0-.871.709-1.58 1.58-1.58H7v4h2v-4h2.76c.586 0 1.095.325 1.367.817A5.198 5.198 0 0 0 12 32.03V36H2zm32 4H14v-7.97c0-.875.346-1.699.973-2.318l-.005-.005a3.296 3.296 0 0 1 2.282-.927h2.791l3.04 7.094a.999.999 0 0 0 1.838 0l3.04-7.094h2.791c.847 0 1.657.33 2.282.927l-.005.005c.627.619.973 1.442.973 2.318V40zm12-4H36v-3.97a5.198 5.198 0 0 0-1.127-3.213A1.558 1.558 0 0 1 36.24 28H39v4h2v-4h3.42c.871 0 1.58.709 1.58 1.58V36zM41 25c2.944 0 5.429-2.102 5.896-4.941.071-.318.104-.654.104-1.059 0-3.309-2.691-6-6-6a6.005 6.005 0 0 0-5.256 3.107l-.001.002A6.03 6.03 0 0 0 35 19c0 3.309 2.691 6 6 6zm0-2c-2.206 0-4-1.794-4-4 0-.155.011-.311.03-.465 1.13.969 3.324 2.071 7.525 2.27A3.964 3.964 0 0 1 41 23zm0-8c2.145 0 3.886 1.7 3.982 3.82-5.168-.165-6.739-1.772-7.112-2.299A3.999 3.999 0 0 1 41 15zM7 25c3.309 0 6-2.691 6-6a6.03 6.03 0 0 0-.743-2.891l-.001-.001A6.004 6.004 0 0 0 7 13c-3.309 0-6 2.691-6 6 0 .405.033.741.094 1.003A5.958 5.958 0 0 0 7 25zm0-2a3.952 3.952 0 0 1-3.546-2.194c4.193-.192 6.387-1.295 7.517-2.268.018.154.029.308.029.462 0 2.206-1.794 4-4 4zm0-8c1.235 0 2.384.575 3.136 1.529-.343.493-1.886 2.125-7.118 2.293C3.113 16.701 4.855 15 7 15z"/>
</svg>
