<svg id="member-searching" fill="currentColor" version="1.1" xmlns="http://www.w3.org/2000/svg" viewBox="0 0 1000 1000" xml:space="preserve">
	<path d="M377.5,494.3l-189.6,0.5c2.7-48.3,21.1-95.7,55.1-134.2L377.5,494.3z M187.9,521.4c3,48.2,21.7,95.4,56,133.9l133.7-134.4L187.9,521.4z M395.7,285.7c-48.2,3-95.4,21.7-133.8,56l134.3,133.6L395.7,285.7z M262.8,674.1c38.5,34,85.9,52.4,134.2,55.1l-0.5-189.6L262.8,674.1z M423.7,729.2c48.1-2.9,95.4-21.7,133.8-56L423.1,539.6L423.7,729.2z M631.4,493.5c-3-48.2-21.7-95.4-56-133.8L441.8,494L631.4,493.5z M422.4,285.7l0.5,189.6l133.7-134.4C518.1,306.8,470.6,288.5,422.4,285.7z M576.3,654.4c33.9-38.5,52.4-85.9,55.1-134.2l-189.6,0.5L576.3,654.4z M894.6,921.2L826.2,990L630.8,795.7l17.1-17.2l-40.4-40.1c-55.1,47.3-124.4,73.3-197.8,73.3c-80.9,0-157.1-31.4-214.5-88.5c-57.6-57.3-89.5-133.7-89.7-214.9c-0.2-81.3,31.2-157.8,88.5-215.4c47.5-47.8,108.1-77.5,173.7-86.5c-27.1-75-125.4-110.3-126.5-110.7l15.8-45.9c4.4,1.5,78.9,28.1,126.8,87.7c2.8-23.9,13.6-81,53.7-108.8c51.4-35.7,131.4-9.5,131.4-9.5s-3.3,84.1-54.7,119.8c-39.7,27.6-96.3,18.3-120.1,12.6c10.3,15.4,18.7,32.6,23.8,51.9c77.9,2.1,150.9,33,206.4,88.1c57.6,57.3,89.5,133.6,89.7,214.9c0.2,73.1-25.4,142.2-72.3,197.4l40.3,40.1l17.1-17.2L894.6,921.2z M591,687.8c48.2-48.4,74.6-112.8,74.4-181c-0.2-68.3-27-132.4-75.4-180.6c-48.2-48-112.3-74.4-180.3-74.4c-68.6,0-133,26.8-181.4,75.4c-48.2,48.4-74.6,112.7-74.4,181c0.2,68.3,27,132.5,75.4,180.6c48.2,48,112.3,74.3,180.3,74.3C478.3,763.2,542.7,736.5,591,687.8z"/>
</svg>
