<svg id="qx-gold-flower" stroke-miterlimit="4" stroke="#a18703" fill-rule="evenodd" fill="#c2a803" xmlns="http://www.w3.org/2000/svg" xmlns:svg="http://www.w3.org/2000/svg" viewBox="0 0 640 480" xml:space="preserve">
	<title>Qruiser gold lotus flower</title>
	<path d="m286.91098,243.704803c-11.338348,-6.722137 -17.348541,-18.049316 -17.601532,-26.678101c5.233826,0.115036 17.809448,13.34433 18.374969,26.388824"/>
	<path d="m290.289459,244.152237c-5.777008,-0.634933 -6.49295,-27.246719 0.072418,-33.793655c7.131683,6.130127 7.160645,33.364563 -0.072418,33.793655z"/>
	<path d="m284.86438,242.224457c-6.352905,-7.876816 -7.536591,-16.579865 -5.559052,-26.486801c3.864288,2.366714 11.445953,11.907242 10.929535,28.415466"/>
	<path d="m290.219421,244.055023c-7.705017,-10.82933 -17.293884,-19.249008 -27.510468,-19.617981c6.40387,12.026703 6.841705,18.414383 27.596893,19.657364"/>
	<path d="m293.611328,243.687073c11.338379,-6.722153 17.348541,-18.049316 17.601532,-26.678116c-5.233826,0.115036 -17.809418,13.34433 -18.374939,26.38884"/>
	<path d="m295.657928,242.206711c6.352875,-7.876801 7.53656,-16.579849 5.559052,-26.486801c-3.864319,2.366714 -11.445953,11.907242 -10.929535,28.415466"/>
	<path d="m290.302887,244.037292c7.704987,-10.829346 17.293884,-19.249008 27.510468,-19.617981c-6.403839,12.026703 -6.841705,18.414383 -27.596893,19.657364"/>
</svg>
