<?xml version="1.0" encoding="UTF-8"?>
<!-- Generator: Adobe Illustrator 13.0.2, SVG Export Plug-In  -->
<!DOCTYPE svg PUBLIC "-//W3C//DTD SVG 1.1//EN" "http://www.w3.org/Graphics/SVG/1.1/DTD/svg11.dtd">
<svg version="1.1" xmlns="http://www.w3.org/2000/svg" xmlns:xlink="http://www.w3.org/1999/xlink" xmlns:a="http://ns.adobe.com/AdobeSVGViewerExtensions/3.0/" x="0px" y="0px" width="256px" height="256px" viewBox="-1.814 -0.692 256 256" enable-background="new -1.814 -0.692 256 256" xml:space="preserve">
<defs>
</defs>
<path d="M178.926,193.636c-0.594,0.098-0.958,0.462-1.973,0.602c-0.796,0.106-0.831-0.062-2.958,0.96  c-1.477,6.155-4.086,11.73-5.65,14.667c-1.566,2.938-3.331,5.622-5.303,8.068s-3.962,4.695-6.859,6.694  c-2.901,2.002-6.506,3.548-9.91,4.695c-3.409,1.153-5.859,0.584-7.373-1.702c-1.509-2.286-1.603-5.291-0.282-9.011  c1.323-3.721,3.526-6.926,5.934-10.169c5.412-7.281,16.169-12.989,22.197-14.976c0.833-4.554,1.037-7.971,1.299-11.222  c0.389-4.79,0.336-7.863-1.204-13.955c-1.537-6.094-4.237-12.163-8.105-18.207c-3.859-6.039-8.661-11.875-14.403-17.507  c-5.738-5.622-11.255-10.363-16.549-14.211c-5.284-3.85-10.284-7.287-14.998-10.312c-4.71-3.03-9.375-6.219-14.001-9.577  c-4.623-3.359-9.57-7.433-14.831-12.224c-5.263-4.79-8.896-10.121-10.901-15.992c-2.004-5.869-2.187-11.846-0.536-17.931  c1.649-6.09,4.305-10.873,7.956-14.365c3.655-3.492,6.319-5.953,7.981-7.382c1.661-1.428,3.514-2.748,5.555-3.961  c2.044-1.21,4.106-2.273,6.205-3.201c2.093-0.924,4.337-1.597,6.732-2.016c2.396-0.418,5.805-0.252,10.223,0.512  c4.419,0.76,7.897,1.84,10.423,3.241c2.537,1.397,4.024,2.195,4.459,2.395c0.438,0.204,0.585,0.454,0.455,0.759  c-0.14,0.306-0.946,0.33-2.421,0.07c-1.477-0.262-4.031-1.185-7.667-2.774c-3.64-1.588-7.181-2.266-10.638-2.031  c-3.46,0.235-7.795,1.768-13.019,4.595c-5.223,2.829-9.69,8.242-13.406,16.238c-3.711,8-4.848,15.037-3.398,21.12  c1.448,6.082,4.051,11.139,7.802,15.181c3.75,4.047,7.767,8.293,12.047,12.745c4.278,4.45,12.516,10.218,24.714,17.306  c12.191,7.088,22.488,14.666,30.871,22.739c8.388,8.066,13.725,15.108,16.02,21.12c2.292,6.013,3.36,12.517,3.212,19.502  c-0.156,6.99-1.091,13.254-2.054,18.06c1.54-0.447,3.271-0.64,4.104-0.896 M156.697,202.183c-2.028,1.378-8.851,6.671-11.162,13.019  c-2.562,7.03,0.977,8.579,3.724,8.786c1.324,0.103,3.528-0.205,6.018-3.04c2.489-2.839,3.027-4.042,5.202-8.377  c2.176-4.33,4.986-11.734,5.627-15.645C161.808,198.658,158.724,200.806,156.697,202.183z"/>
<radialGradient id="SVGID_1_" cx="24.7817" cy="246.5884" r="155.5517" gradientTransform="matrix(1.7243 0 0 1.7243 -82.2433 -97.1372)" gradientUnits="userSpaceOnUse">
	<stop offset="0" style="stop-color:#4E4E4E"/>
	<stop offset="1" style="stop-color:#FFFFFF"/>
</radialGradient>
<path fill="url(#SVGID_1_)" d="M253.213,126.902c0,69.924-56.685,126.604-126.604,126.604C56.684,253.506,0,196.827,0,126.902  C0,56.979,56.684,0.294,126.608,0.294C196.528,0.294,253.213,56.979,253.213,126.902z"/>
<path d="M178.929,193.636c-0.597,0.098-0.961,0.462-1.976,0.602c-0.796,0.106-0.831-0.062-2.958,0.96  c-1.475,6.155-4.084,11.73-5.653,14.667c-1.563,2.938-3.328,5.622-5.303,8.07c-1.971,2.439-3.959,4.693-6.856,6.692  c-2.901,2.002-6.506,3.546-9.91,4.695c-3.409,1.153-5.859,0.584-7.373-1.702c-1.509-2.286-1.603-5.291-0.282-9.011  c1.323-3.721,3.526-6.926,5.934-10.169c5.412-7.281,16.169-12.989,22.197-14.976c0.833-4.554,1.037-7.971,1.301-11.222  c0.385-4.79,0.336-7.863-1.203-13.955c-1.538-6.094-4.237-12.168-8.11-18.207c-3.857-6.039-8.659-11.875-14.401-17.507  c-5.738-5.628-11.255-10.363-16.549-14.211c-5.284-3.847-10.284-7.287-14.998-10.31c-4.71-3.033-9.375-6.222-14.001-9.58  c-4.623-3.359-9.57-7.433-14.831-12.227c-5.263-4.791-8.896-10.118-10.901-15.989c-2.004-5.866-2.187-11.85-0.536-17.931  c1.649-6.09,4.305-10.877,7.956-14.365c3.655-3.492,6.319-5.949,7.981-7.382c1.661-1.428,3.514-2.748,5.555-3.961  c2.044-1.21,4.106-2.273,6.205-3.201c2.093-0.924,4.337-1.597,6.732-2.016c2.396-0.418,5.805-0.248,10.223,0.512  c4.419,0.76,7.897,1.845,10.423,3.241c2.537,1.397,4.024,2.195,4.459,2.395c0.438,0.204,0.585,0.451,0.455,0.759  c-0.14,0.306-0.946,0.33-2.421,0.07c-1.477-0.262-4.031-1.185-7.667-2.777c-3.64-1.585-7.181-2.268-10.638-2.028  c-3.46,0.238-7.795,1.768-13.019,4.595c-5.223,2.825-9.69,8.242-13.406,16.238c-3.711,8-4.848,15.033-3.398,21.12  c1.448,6.082,4.051,11.139,7.802,15.181c3.75,4.047,7.767,8.293,12.047,12.745c4.278,4.454,12.516,10.218,24.714,17.306  c12.191,7.088,22.488,14.669,30.874,22.739c8.385,8.071,13.725,15.108,16.015,21.12c2.298,6.013,3.36,12.517,3.211,19.502  c-0.149,6.99-1.088,13.254-2.051,18.06c1.54-0.447,3.271-0.64,4.106-0.896 M156.699,202.183c-2.03,1.378-8.853,6.671-11.164,13.019  c-2.562,7.03,0.977,8.579,3.724,8.786c1.324,0.103,3.528-0.205,6.018-3.04c2.492-2.839,3.027-4.042,5.202-8.377  c2.176-4.33,4.986-11.734,5.627-15.645C161.808,198.658,158.724,200.806,156.699,202.183z"/>
<path d="M212.479,188.27c-15.265-2.642-35.469,3.397-35.469,3.397l0.897,2.311c0,0,15.132-2.053,25.392-1.54  c25.116,1.258,14.293,16.85,14.293,16.85c-44.343,47.552-118.842,50.148-166.394,5.806C3.645,170.746,1.044,96.244,45.392,48.694  C89.741,1.142,166.082-6.256,213.635,38.091c14.418,13.444,25.449,28.379,31.55,45.784l0.165,0.408  c0.314,1.159,2.256,4.916,2.606,3.797c-6.405-19.977-17.86-38.643-34.293-53.968c-51.284-47.824-131.626-45.021-179.45,6.261  c-47.824,51.28-45.021,131.624,6.258,179.447c51.283,47.828,131.624,45.024,179.449-6.258c2.567-2.753,5.172-5.459,7.261-8.501  C232.904,196.711,225.819,190.577,212.479,188.27z"/>
<path d="M178.929,193.636c-0.597,0.098-0.961,0.462-1.976,0.602c-0.796,0.106-0.831-0.062-2.958,0.96  c-1.475,6.155-4.084,11.73-5.653,14.667c-1.563,2.938-3.328,5.622-5.303,8.07c-1.971,2.439-3.959,4.693-6.856,6.692  c-2.901,2.002-6.506,3.546-9.91,4.695c-3.409,1.153-5.859,0.584-7.373-1.702c-1.509-2.286-1.603-5.291-0.282-9.011  c1.323-3.721,3.526-6.926,5.934-10.169c5.412-7.281,16.169-12.989,22.197-14.976c0.833-4.554,1.037-7.971,1.301-11.222  c0.385-4.79,0.336-7.863-1.203-13.955c-1.538-6.094-4.237-12.168-8.11-18.207c-3.857-6.039-8.659-11.875-14.401-17.507  c-5.738-5.628-11.255-10.363-16.549-14.211c-5.284-3.847-10.284-7.287-14.998-10.31c-4.71-3.033-9.375-6.222-14.001-9.58  c-4.623-3.359-9.57-7.433-14.831-12.227c-5.263-4.791-8.896-10.118-10.901-15.989c-2.004-5.866-2.187-11.85-0.536-17.931  c1.649-6.09,4.262-11.041,7.689-14.749c9.184-9.934,17.909-13.232,20.007-14.159c2.093-0.924,4.337-1.597,6.732-2.016  c2.396-0.418,5.805-0.248,10.223,0.512c4.419,0.76,7.897,1.845,10.423,3.241c2.537,1.397,4.024,2.195,4.459,2.395  c0.438,0.204,0.585,0.451,0.455,0.759c-0.14,0.306-0.946,0.33-2.421,0.07c-1.477-0.262-4.031-1.185-7.667-2.777  c-3.64-1.585-7.181-2.268-10.638-2.028c-3.46,0.238-7.795,1.768-13.019,4.595c-5.223,2.825-9.69,8.242-13.406,16.238  c-3.711,8-4.848,15.033-3.398,21.12c1.448,6.082,4.051,11.139,7.802,15.181c3.75,4.047,7.767,8.293,12.047,12.745  c4.278,4.454,12.516,10.218,24.714,17.306c12.191,7.088,22.488,14.669,30.874,22.739c8.385,8.071,13.725,15.108,16.015,21.12  c2.298,6.013,3.36,12.517,3.211,19.502c-0.149,6.99-1.088,13.254-2.051,18.06c1.54-0.447,3.271-0.64,4.106-0.896 M156.699,202.183  c-2.03,1.378-8.853,6.671-11.164,13.019c-2.562,7.03,0.977,8.579,3.724,8.786c1.324,0.103,3.528-0.205,6.018-3.04  c2.492-2.839,3.027-4.042,5.202-8.377c2.176-4.33,4.986-11.734,5.627-15.645C161.808,198.658,158.724,200.806,156.699,202.183z"/>
</svg>