<svg version="1.1" id="Layer_1" xmlns="http://www.w3.org/2000/svg" xmlns:xlink="http://www.w3.org/1999/xlink" x="0px" y="0px" width="100px" height="100px" viewBox="0 0 100 100" enable-background="new 0 0 100 100" xml:space="preserve">
	<path id="path" fill="#C1C1C1" d="M61.443,22.598H37.302c-2.309,0-4.18,1.875-4.18,4.18v49.023c0,2.31,1.87,4.18,4.18,4.18h24.141  c2.314,0,4.185-1.87,4.185-4.18V26.777C65.628,24.473,63.757,22.598,61.443,22.598z M46.643,26.157h5.464v1.816h-5.464V26.157z   M49.377,77.788c-1.47,0-2.666-1.192-2.666-2.666c0-1.47,1.196-2.661,2.666-2.661c1.47,0,2.661,1.192,2.661,2.661  C52.039,76.597,50.847,77.788,49.377,77.788z M62.498,70.781h-26.24V31.802h26.24V70.781z"></path>
</svg>
